<svg id="title-growing-up" width="370" height="130" viewBox="0 0 370 130" fill="none" xmlns="http://www.w3.org/2000/svg">
<g filter="url(#filter0_ii_234_978)">
<g clip-path="url(#clip0_234_978)">
<rect y="54.4325" width="362" height="76" rx="20" transform="rotate(-8.64814 0 54.4325)" fill="#CCFFED"/>
<path d="M52.4972 106.126C52.2162 106.169 51.9573 105.979 51.9146 105.698L51.8975 105.585C51.8548 105.304 51.5958 105.114 51.3149 105.156L51.2025 105.174C50.9215 105.216 50.6626 105.026 50.6199 104.745L50.6028 104.632C50.5601 104.351 50.3011 104.161 50.0202 104.204L49.9078 104.221C49.6268 104.263 49.3679 104.073 49.3252 103.792L49.3081 103.68C49.2654 103.399 49.0064 103.208 48.7255 103.251L48.6131 103.268C48.3321 103.311 48.0732 103.12 48.0305 102.839L47.8425 101.603C47.7997 101.322 47.5408 101.131 47.2598 101.174L47.1475 101.191C46.8665 101.234 46.6076 101.043 46.5649 100.762L46.035 97.2787C45.9923 96.9978 45.7333 96.8072 45.4524 96.8499L45.34 96.867C45.0591 96.9098 44.8001 96.7192 44.7574 96.4383L44.0566 91.8308C44.0139 91.5498 44.2045 91.2909 44.4854 91.2481L44.5978 91.2311C44.8787 91.1883 45.0693 90.9294 45.0266 90.6484L44.4967 87.1647C44.454 86.8838 44.6445 86.6248 44.9255 86.5821L45.0379 86.565C45.3188 86.5223 45.5094 86.2633 45.4667 85.9824L44.9368 82.4987C44.8941 82.2177 45.0846 81.9588 45.3656 81.9161L45.478 81.899C45.7589 81.8562 45.9495 81.5973 45.9067 81.3164L45.7187 80.0802C45.676 79.7993 45.8666 79.5403 46.1475 79.4976L46.2599 79.4805C46.5408 79.4378 46.7314 79.1788 46.6887 78.8979L46.5007 77.6617C46.4579 77.3808 46.6485 77.1218 46.9295 77.0791L47.0418 77.062C47.3228 77.0193 47.5133 76.7603 47.4706 76.4794L47.2826 75.2433C47.2399 74.9623 47.4304 74.7034 47.7114 74.6606L47.8238 74.6435C48.1047 74.6008 48.2953 74.3419 48.2526 74.0609L48.0645 72.8248C48.0218 72.5438 48.2124 72.2849 48.4933 72.2422L48.6057 72.2251C48.8866 72.1823 49.0772 71.9234 49.0345 71.6424L49.0174 71.5301C48.9747 71.2491 49.1652 70.9902 49.4462 70.9475L49.5586 70.9304C49.8395 70.8876 50.0301 70.6287 49.9873 70.3477L49.9703 70.2354C49.9275 69.9544 50.1181 69.6955 50.399 69.6528L50.5114 69.6357C50.7924 69.5929 50.9829 69.334 50.9402 69.053L50.9231 68.9407C50.8804 68.6597 51.071 68.4008 51.3519 68.3581L51.4643 68.341C51.7452 68.2982 51.9358 68.0393 51.8931 67.7583L51.876 67.646C51.8332 67.365 52.0238 67.1061 52.3048 67.0634L52.4171 67.0463C52.6981 67.0035 52.8887 66.7446 52.8459 66.4636L52.8288 66.3513C52.7861 66.0703 52.9767 65.8114 53.2576 65.7687L53.37 65.7516C53.6509 65.7088 53.8415 65.4499 53.7988 65.1689L53.7817 65.0566C53.739 64.7756 53.9295 64.5167 54.2105 64.474L55.4466 64.2859C55.7276 64.2432 55.9181 63.9843 55.8754 63.7033L55.8583 63.5909C55.8156 63.31 56.0062 63.0511 56.2871 63.0083L57.5233 62.8203C57.8042 62.7776 57.9948 62.5186 57.952 62.2377L57.935 62.1253C57.8922 61.8444 58.0828 61.5854 58.3637 61.5427L66.3426 60.3292C66.6235 60.2864 66.8825 60.477 66.9252 60.758L66.9423 60.8703C66.985 61.1513 67.244 61.3418 67.5249 61.2991L68.7611 61.1111C69.042 61.0684 69.3009 61.2589 69.3437 61.5399L69.3608 61.6523C69.4035 61.9332 69.6624 62.1238 69.9434 62.0811L71.1795 61.893C71.4605 61.8503 71.651 61.5914 71.6083 61.3104L71.5912 61.198C71.5485 60.9171 71.7391 60.6582 72.02 60.6154L72.1324 60.5983C72.4133 60.5556 72.6039 60.2967 72.5612 60.0157L72.5441 59.9033C72.5014 59.6224 72.6919 59.3635 72.9729 59.3207L73.0852 59.3036C73.3662 59.2609 73.6251 59.4515 73.6679 59.7324L74.0268 62.0924C74.0695 62.3733 73.879 62.6322 73.598 62.675L73.4856 62.6921C73.2047 62.7348 73.0141 62.9937 73.0568 63.2747L73.5867 66.7584C73.6294 67.0393 73.4389 67.2983 73.1579 67.341L73.0455 67.3581C72.7646 67.4008 72.574 67.6598 72.6168 67.9407L73.1466 71.4244C73.1893 71.7054 72.9988 71.9643 72.7178 72.007L72.6054 72.0241C72.3245 72.0669 72.1339 72.3258 72.1767 72.6068L72.3647 73.8429C72.4074 74.1239 72.2168 74.3828 71.9359 74.4255L71.8235 74.4426C71.5426 74.4854 71.2836 74.2948 71.2409 74.0138L70.1983 67.1588C70.1555 66.8778 69.8966 66.6873 69.6157 66.73L69.5033 66.7471C69.2223 66.7898 68.9634 66.5992 68.9207 66.3183L68.7327 65.0821C68.6899 64.8012 68.431 64.6106 68.15 64.6534L68.0377 64.6705C67.7567 64.7132 67.4978 64.5226 67.455 64.2417L67.438 64.1293C67.3952 63.8483 67.1363 63.6578 66.8553 63.7005L66.743 63.7176C66.462 63.7603 66.2031 63.5698 66.1603 63.2888L66.1433 63.1764C66.1005 62.8955 65.8416 62.7049 65.5606 62.7476L58.7056 63.7903C58.4246 63.833 58.2341 64.0919 58.2768 64.3729L58.2939 64.4853C58.3366 64.7662 58.1461 65.0251 57.8651 65.0679L57.7527 65.085C57.4718 65.1277 57.2812 65.3866 57.3239 65.6676L57.341 65.78C57.3838 66.0609 57.1932 66.3198 56.9123 66.3626L56.7999 66.3797C56.5189 66.4224 56.3284 66.6813 56.3711 66.9623L56.3882 67.0747C56.4309 67.3556 56.2403 67.6145 55.9594 67.6573L55.847 67.6744C55.5661 67.7171 55.3755 67.976 55.4182 68.257L55.4353 68.3694C55.4781 68.6503 55.2875 68.9092 55.0065 68.952L54.8942 68.9691C54.6132 69.0118 54.4226 69.2707 54.4654 69.5517L54.4825 69.6641C54.5252 69.945 54.3346 70.2039 54.0537 70.2467L53.9413 70.2638C53.6604 70.3065 53.4698 70.5654 53.5125 70.8464L53.5296 70.9588C53.5723 71.2397 53.3818 71.4986 53.1008 71.5414L52.9884 71.5585C52.7075 71.6012 52.5169 71.8601 52.5597 72.1411L52.7477 73.3772C52.7904 73.6582 52.5998 73.9171 52.3189 73.9599L52.2065 73.9769C51.9256 74.0197 51.735 74.2786 51.7777 74.5596L51.9657 75.7957C52.0085 76.0767 51.8179 76.3356 51.5369 76.3783L51.4246 76.3954C51.1436 76.4382 50.9531 76.6971 50.9958 76.978L51.1838 78.2142C51.2265 78.4951 51.036 78.7541 50.755 78.7968L50.6426 78.8139C50.3617 78.8566 50.1711 79.1156 50.2138 79.3965L50.4019 80.6327C50.4446 80.9136 50.254 81.1726 49.9731 81.2153L49.8607 81.2324C49.5798 81.2751 49.3892 81.5341 49.4319 81.815L50.1327 86.4225C50.1754 86.7034 49.9848 86.9624 49.7039 87.0051L49.5915 87.0222C49.3106 87.0649 49.12 87.3239 49.1627 87.6048L49.6926 91.0885C49.7353 91.3695 49.5448 91.6284 49.2638 91.6711L49.1514 91.6882C48.8705 91.731 48.6799 91.9899 48.7226 92.2709L49.0816 94.6308C49.1243 94.9117 49.3833 95.1023 49.6642 95.0596L49.7766 95.0425C50.0575 94.9998 50.3165 95.1903 50.3592 95.4713L50.889 98.955C50.9318 99.2359 51.1907 99.4265 51.4717 99.3838L51.584 99.3667C51.865 99.3239 52.1239 99.5145 52.1667 99.7955L52.3547 101.032C52.3974 101.313 52.6563 101.503 52.9373 101.46L53.0497 101.443C53.3306 101.401 53.5895 101.591 53.6323 101.872L53.6494 101.984C53.6921 102.265 53.951 102.456 54.232 102.413L54.3444 102.396C54.6253 102.353 54.8842 102.544 54.927 102.825L54.9441 102.937C54.9868 103.218 55.2457 103.409 55.5267 103.366L60.1342 102.665C60.4151 102.623 60.6057 102.364 60.563 102.083L60.5459 101.97C60.5031 101.689 60.6937 101.43 60.9747 101.388L62.2108 101.2C62.4918 101.157 62.6823 100.898 62.6396 100.617L62.6225 100.505C62.5798 100.224 62.7703 99.9648 63.0513 99.9221L63.1637 99.905C63.4446 99.8623 63.6352 99.6033 63.5925 99.3224L63.5754 99.21C63.5326 98.9291 63.7232 98.6701 64.0042 98.6274L64.1165 98.6103C64.3975 98.5676 64.588 98.3086 64.5453 98.0277L64.0155 94.544C63.9727 94.263 64.1633 94.0041 64.4442 93.9614L64.5566 93.9443C64.8376 93.9016 65.0281 93.6426 64.9854 93.3617L64.6265 91.0017C64.5837 90.7208 64.7743 90.4618 65.0553 90.4191L65.1676 90.402C65.4486 90.3593 65.6392 90.1004 65.5964 89.8194L65.2375 87.4595C65.1948 87.1785 65.3853 86.9196 65.6663 86.8769L65.7787 86.8598C66.0596 86.817 66.2502 86.5581 66.2074 86.2772L65.6776 82.7934C65.6349 82.5125 65.3759 82.3219 65.095 82.3647L63.8588 82.5527C63.5779 82.5954 63.3189 82.4048 63.2762 82.1239L63.2591 82.0115C63.2164 81.7306 62.9574 81.54 62.6765 81.5827L61.4403 81.7707C61.1594 81.8135 60.9004 81.6229 60.8577 81.3419L60.8406 81.2296C60.7979 80.9486 60.9885 80.6897 61.2694 80.647L73.7434 78.7497C74.0243 78.707 74.2832 78.8976 74.326 79.1785L74.3431 79.2909C74.3858 79.5718 74.1952 79.8308 73.9143 79.8735L72.6781 80.0615C72.3972 80.1042 72.2066 80.3632 72.2493 80.6441L72.2664 80.7565C72.3092 81.0375 72.1186 81.2964 71.8376 81.3391L70.6015 81.5271C70.3205 81.5699 70.13 81.8288 70.1727 82.1098L70.7026 85.5935C70.7453 85.8744 70.5547 86.1334 70.2738 86.1761L70.1614 86.1932C69.8804 86.2359 69.6899 86.4948 69.7326 86.7758L70.0915 89.1357C70.1343 89.4167 69.9437 89.6756 69.6628 89.7183L69.5504 89.7354C69.2694 89.7782 69.0789 90.0371 69.1216 90.318L69.4805 92.678C69.5233 92.9589 69.3327 93.2179 69.0517 93.2606L68.9394 93.2777C68.6584 93.3204 68.4678 93.5794 68.5106 93.8603L69.0404 97.344C69.0832 97.625 68.8926 97.8839 68.6116 97.9266L68.4993 97.9437C68.2183 97.9865 68.0278 98.2454 68.0705 98.5263L68.4294 100.886C68.4721 101.167 68.2816 101.426 68.0006 101.469L67.8883 101.486C67.6073 101.529 67.4167 101.788 67.4595 102.069L67.6475 103.305C67.6902 103.586 67.4996 103.845 67.2187 103.887L67.1063 103.904C66.8254 103.947 66.5664 103.757 66.5237 103.476L65.9938 99.992C65.9511 99.711 65.6922 99.5204 65.4112 99.5632L65.2989 99.5803C65.0179 99.623 64.8273 99.8819 64.8701 100.163L64.8872 100.275C64.9299 100.556 64.7393 100.815 64.4584 100.858L64.346 100.875C64.065 100.918 63.8745 101.177 63.9172 101.458L63.9343 101.57C63.977 101.851 63.7865 102.11 63.5055 102.153L63.3931 102.17C63.1122 102.212 62.9216 102.471 62.9644 102.752L62.9814 102.865C63.0242 103.146 62.8336 103.405 62.5527 103.447L62.4403 103.464C62.1593 103.507 61.9688 103.766 62.0115 104.047L62.0286 104.159C62.0713 104.44 61.8807 104.699 61.5998 104.742L52.4972 106.126ZM74.7524 102.742C74.4715 102.784 74.2125 102.594 74.1698 102.313L74.1527 102.2C74.11 101.919 74.3005 101.66 74.5815 101.618L75.8176 101.43C76.0986 101.387 76.2892 101.128 76.2464 100.847L76.2293 100.735C76.1866 100.454 76.3772 100.195 76.6581 100.152L77.8943 99.9641C78.1752 99.9214 78.3658 99.6624 78.3231 99.3815L78.306 99.2691C78.2632 98.9882 78.4538 98.7292 78.7348 98.6865L78.8471 98.6694C79.1281 98.6267 79.3186 98.3677 79.2759 98.0868L79.0879 96.8506C79.0452 96.5697 79.2357 96.3108 79.5167 96.268L79.6291 96.2509C79.91 96.2082 80.1006 95.9493 80.0579 95.6683L79.528 92.1846C79.4853 91.9037 79.6758 91.6447 79.9568 91.602L80.0692 91.5849C80.3501 91.5422 80.5407 91.2832 80.4979 91.0023L80.139 88.6423C80.0963 88.3614 80.2869 88.1025 80.5678 88.0597L80.6802 88.0426C80.9611 87.9999 81.1517 87.741 81.109 87.46L80.5791 83.9763C80.5364 83.6954 80.7269 83.4364 81.0079 83.3937L81.1203 83.3766C81.4012 83.3339 81.5918 83.0749 81.5491 82.794L81.1901 80.4341C81.1474 80.1531 81.338 79.8942 81.6189 79.8514L81.7313 79.8343C82.0122 79.7916 82.2028 79.5327 82.1601 79.2517L81.6302 75.768C81.5875 75.4871 81.7781 75.2281 82.059 75.1854L82.1714 75.1683C82.4523 75.1256 82.6429 74.8666 82.6002 74.5857L82.2412 72.2258C82.1985 71.9448 82.3891 71.6859 82.67 71.6431L82.7824 71.6261C83.0633 71.5833 83.2539 71.3244 83.2112 71.0434L82.6813 67.5597C82.6386 67.2788 82.8292 67.0198 83.1101 66.9771L83.2225 66.96C83.5034 66.9173 83.694 66.6583 83.6513 66.3774L83.2923 64.0175C83.2496 63.7365 83.4402 63.4776 83.7211 63.4348L83.8335 63.4178C84.1144 63.375 84.305 63.1161 84.2623 62.8351L83.9033 60.4752C83.8606 60.1943 83.6017 60.0037 83.3207 60.0464L83.2084 60.0635C82.9274 60.1062 82.6685 59.9157 82.6257 59.6347L82.6086 59.5223C82.5659 59.2414 82.307 59.0508 82.026 59.0936L80.7899 59.2816C80.5089 59.3243 80.25 59.1337 80.2073 58.8528L80.1902 58.7404C80.1474 58.4595 80.338 58.2005 80.619 58.1578L95.3405 55.9187C95.6214 55.876 95.8803 56.0666 95.9231 56.3475L95.9402 56.4599C95.9829 56.7408 96.2418 56.9314 96.5228 56.8887L97.7589 56.7007C98.0399 56.6579 98.2988 56.8485 98.3416 57.1294L98.3586 57.2418C98.4014 57.5228 98.6603 57.7133 98.9413 57.6706L99.0536 57.6535C99.3346 57.6108 99.5935 57.8014 99.6363 58.0823L99.8243 59.3185C99.867 59.5994 100.126 59.79 100.407 59.7472L100.519 59.7302C100.8 59.6874 101.059 59.878 101.102 60.1589L102.315 68.1378C102.358 68.4187 102.168 68.6777 101.887 68.7204L101.774 68.7375C101.493 68.7802 101.303 69.0391 101.345 69.3201L101.704 71.68C101.747 71.961 101.557 72.2199 101.276 72.2626L101.163 72.2797C100.882 72.3225 100.692 72.5814 100.734 72.8624L100.752 72.9747C100.794 73.2557 100.604 73.5146 100.323 73.5573L100.21 73.5744C99.9294 73.6172 99.7389 73.8761 99.7816 74.1571L99.7987 74.2694C99.8414 74.5504 99.6508 74.8093 99.3699 74.852L99.2575 74.8691C98.9766 74.9119 98.786 75.1708 98.8287 75.4518L98.8458 75.5641C98.8886 75.8451 98.698 76.104 98.417 76.1467L98.3047 76.1638C98.0237 76.2066 97.8331 76.4655 97.8759 76.7465L97.893 76.8588C97.9357 77.1398 97.7451 77.3987 97.4642 77.4414L97.3518 77.4585C97.0709 77.5013 96.8803 77.7602 96.923 78.0412L96.9401 78.1535C96.9828 78.4345 96.7923 78.6934 96.5113 78.7361L95.2752 78.9242C94.9942 78.9669 94.8037 79.2258 94.8464 79.5068L94.8635 79.6192C94.9062 79.9001 94.7156 80.159 94.4347 80.2018L94.3223 80.2189C94.0414 80.2616 93.8508 80.5205 93.8935 80.8015L94.0815 82.0376C94.1243 82.3186 94.3832 82.5091 94.6642 82.4664L94.7765 82.4493C95.0575 82.4066 95.3164 82.5972 95.3592 82.8781L95.889 86.3618C95.9317 86.6428 96.1907 86.8333 96.4716 86.7906L96.584 86.7735C96.8649 86.7308 97.1239 86.9214 97.1666 87.2023L97.8674 91.8098C97.9101 92.0907 98.1691 92.2813 98.45 92.2386L98.5624 92.2215C98.8433 92.1788 99.1023 92.3693 99.145 92.6503L99.6749 96.134C99.7176 96.4149 99.9765 96.6055 100.257 96.5628L100.37 96.5457C100.651 96.503 100.91 96.6935 100.952 96.9745L100.97 97.0869C101.012 97.3678 101.271 97.5584 101.552 97.5156L102.788 97.3276C103.069 97.2849 103.328 97.4755 103.371 97.7564L103.388 97.8688C103.431 98.1497 103.24 98.4087 102.959 98.4514L92.7329 100.007C92.4519 100.05 92.193 99.8589 92.1502 99.578L92.1332 99.4656C92.0904 99.1847 92.281 98.9257 92.5619 98.883L93.7981 98.695C94.079 98.6523 94.2696 98.3933 94.2269 98.1124L94.2098 98C94.1671 97.7191 94.3576 97.4601 94.6386 97.4174L94.751 97.4003C95.0319 97.3576 95.2225 97.0986 95.1797 96.8177L94.6499 93.334C94.6072 93.053 94.3482 92.8624 94.0673 92.9052L93.9549 92.9223C93.6739 92.965 93.415 92.7744 93.3723 92.4935L92.6715 87.886C92.6288 87.605 92.3698 87.4145 92.0889 87.4572L91.9765 87.4743C91.6956 87.517 91.4366 87.3265 91.3939 87.0455L90.864 83.5618C90.8213 83.2809 90.5624 83.0903 90.2814 83.133L90.169 83.1501C89.8881 83.1928 89.6292 83.0023 89.5864 82.7213L89.3984 81.4852C89.3557 81.2042 89.0967 81.0136 88.8158 81.0564L86.4559 81.4153C86.1749 81.458 85.9843 81.717 86.0271 81.9979L86.0442 82.1103C86.0869 82.3912 85.8963 82.6502 85.6154 82.6929L85.503 82.71C85.2221 82.7527 85.0315 83.0117 85.0742 83.2926L85.6041 86.7763C85.6468 87.0573 85.4562 87.3162 85.1753 87.359L85.0629 87.376C84.782 87.4188 84.5914 87.6777 84.6341 87.9587L84.9931 90.3186C85.0358 90.5995 84.8452 90.8585 84.5643 90.9012L84.4519 90.9183C84.171 90.961 83.9804 91.22 84.0231 91.5009L84.553 94.9846C84.5957 95.2656 84.4051 95.5245 84.1242 95.5673L84.0118 95.5843C83.7309 95.6271 83.5403 95.886 83.583 96.167L83.942 98.5269C83.9847 98.8078 84.2436 98.9984 84.5246 98.9557L84.6369 98.9386C84.9179 98.8959 85.1768 99.0864 85.2196 99.3674L85.2367 99.4798C85.2794 99.7607 85.5383 99.9513 85.8193 99.9085L87.0554 99.7205C87.3364 99.6778 87.5953 99.8684 87.638 100.149L87.6551 100.262C87.6979 100.543 87.5073 100.802 87.2263 100.844L74.7524 102.742ZM86.6552 78.568C86.6979 78.849 86.9569 79.0396 87.2378 78.9968L92.9691 78.1251C93.25 78.0824 93.4406 77.8235 93.3979 77.5425L93.3808 77.4301C93.338 77.1492 93.5286 76.8903 93.8095 76.8475L93.9219 76.8304C94.2029 76.7877 94.3934 76.5288 94.3507 76.2478L94.3336 76.1354C94.2909 75.8545 94.4815 75.5956 94.7624 75.5528L94.8748 75.5357C95.1557 75.493 95.3463 75.2341 95.3036 74.9531L95.2865 74.8407C95.2437 74.5598 95.4343 74.3009 95.7153 74.2581L95.8276 74.241C96.1086 74.1983 96.2992 73.9394 96.2564 73.6584L96.2393 73.546C96.1966 73.2651 96.3872 73.0062 96.6681 72.9634L96.7805 72.9463C97.0614 72.9036 97.252 72.6447 97.2093 72.3637L96.8504 70.0038C96.8076 69.7228 96.9982 69.4639 97.2791 69.4212L97.3915 69.4041C97.6725 69.3613 97.863 69.1024 97.8203 68.8215L96.7777 61.9664C96.735 61.6855 96.476 61.4949 96.1951 61.5376L96.0827 61.5547C95.8017 61.5974 95.5428 61.4069 95.5001 61.1259L95.3121 59.8898C95.2693 59.6088 95.0104 59.4183 94.7294 59.461L94.6171 59.4781C94.3361 59.5208 94.0772 59.3302 94.0344 59.0493L94.0174 58.9369C93.9746 58.656 93.7157 58.4654 93.4347 58.5081L89.951 59.038C89.6701 59.0807 89.4795 59.3397 89.5222 59.6206L89.5393 59.733C89.5821 60.0139 89.3915 60.2729 89.1105 60.3156L88.9982 60.3327C88.7172 60.3754 88.5267 60.6344 88.5694 60.9153L88.7574 62.1515C88.8001 62.4324 88.6096 62.6913 88.3286 62.7341L88.2162 62.7512C87.9353 62.7939 87.7447 63.0528 87.7874 63.3338L88.1464 65.6937C88.1891 65.9747 87.9985 66.2336 87.7176 66.2763L87.6052 66.2934C87.3243 66.3362 87.1337 66.5951 87.1764 66.876L87.7063 70.3597C87.749 70.6407 87.5584 70.8996 87.2775 70.9424L87.1651 70.9595C86.8842 71.0022 86.6936 71.2611 86.7363 71.5421L87.0953 73.902C87.138 74.183 86.9474 74.4419 86.6665 74.4846L86.5541 74.5017C86.2732 74.5444 86.0826 74.8034 86.1253 75.0843L86.6552 78.568ZM117 96.3158C116.719 96.3585 116.46 96.168 116.418 95.887L116.401 95.7747C116.358 95.4937 116.099 95.3031 115.818 95.3459L115.706 95.363C115.425 95.4057 115.166 95.2151 115.123 94.9342L115.106 94.8218C115.063 94.5409 114.804 94.3503 114.523 94.393L114.411 94.4101C114.13 94.4528 113.871 94.2623 113.828 93.9813L113.811 93.8689C113.769 93.588 113.51 93.3974 113.229 93.4402L113.116 93.4572C112.835 93.5 112.576 93.3094 112.534 93.0285L112.346 91.7923C112.303 91.5114 112.044 91.3208 111.763 91.3635L111.651 91.3806C111.37 91.4233 111.111 91.2328 111.068 90.9518L110.538 87.4681C110.495 87.1872 110.236 86.9966 109.956 87.0393L109.843 87.0564C109.562 87.0991 109.303 86.9086 109.261 86.6276L108.56 82.0201C108.517 81.7392 108.708 81.4803 108.989 81.4375L109.101 81.4204C109.382 81.3777 109.572 81.1188 109.53 80.8378L109 77.3541C108.957 77.0732 109.148 76.8142 109.429 76.7715L109.541 76.7544C109.822 76.7117 110.013 76.4527 109.97 76.1718L109.44 72.6881C109.397 72.4071 109.588 72.1482 109.869 72.1054L109.981 72.0884C110.262 72.0456 110.453 71.7867 110.41 71.5057L110.222 70.2696C110.179 69.9886 110.37 69.7297 110.651 69.687L110.763 69.6699C111.044 69.6271 111.235 69.3682 111.192 69.0873L111.004 67.8511C110.961 67.5702 111.152 67.3112 111.433 67.2685L111.545 67.2514C111.826 67.2087 112.016 66.9497 111.974 66.6688L111.786 65.4326C111.743 65.1517 111.934 64.8927 112.215 64.85L112.327 64.8329C112.608 64.7902 112.798 64.5312 112.756 64.2503L112.568 63.0141C112.525 62.7332 112.716 62.4743 112.996 62.4315L113.109 62.4144C113.39 62.3717 113.58 62.1128 113.538 61.8318L113.521 61.7194C113.478 61.4385 113.668 61.1796 113.949 61.1368L114.062 61.1197C114.343 61.077 114.533 60.8181 114.49 60.5371L114.473 60.4247C114.431 60.1438 114.621 59.8849 114.902 59.8421L115.015 59.825C115.296 59.7823 115.486 59.5234 115.443 59.2424L115.426 59.13C115.384 58.8491 115.574 58.5902 115.855 58.5474L115.967 58.5303C116.248 58.4876 116.439 58.2287 116.396 57.9477L116.379 57.8353C116.336 57.5544 116.527 57.2955 116.808 57.2527L116.92 57.2356C117.201 57.1929 117.392 56.934 117.349 56.653L117.332 56.5406C117.289 56.2597 117.48 56.0008 117.761 55.958L117.873 55.9409C118.154 55.8982 118.345 55.6393 118.302 55.3583L118.285 55.2459C118.242 54.965 118.433 54.7061 118.714 54.6633L119.95 54.4753C120.231 54.4326 120.421 54.1736 120.379 53.8927L120.361 53.7803C120.319 53.4994 120.509 53.2404 120.79 53.1977L122.026 53.0097C122.307 52.967 122.498 52.708 122.455 52.4271L122.438 52.3147C122.395 52.0338 122.586 51.7748 122.867 51.7321L129.722 50.6895C130.003 50.6467 130.262 50.8373 130.305 51.1183L130.322 51.2306C130.364 51.5116 130.623 51.7021 130.904 51.6594L131.017 51.6423C131.298 51.5996 131.557 51.7902 131.599 52.0711L131.787 53.3073C131.83 53.5882 132.089 53.7788 132.37 53.7361L132.482 53.719C132.763 53.6762 133.022 53.8668 133.065 54.1477L133.082 54.2601C133.125 54.5411 133.384 54.7316 133.665 54.6889L133.777 54.6718C134.058 54.6291 134.317 54.8197 134.36 55.1006L134.719 57.4605C134.761 57.7415 135.02 57.9321 135.301 57.8893L135.414 57.8722C135.694 57.8295 135.953 58.0201 135.996 58.301L136.868 64.0323C136.911 64.3132 136.72 64.5722 136.439 64.6149L136.327 64.632C136.046 64.6747 135.855 64.9337 135.898 65.2146L136.77 70.9459C136.812 71.2268 136.622 71.4858 136.341 71.5285L136.228 71.5456C135.947 71.5883 135.757 71.8473 135.8 72.1282L136.159 74.4881C136.201 74.7691 136.011 75.028 135.73 75.0708L135.617 75.0878C135.336 75.1306 135.146 75.3895 135.189 75.6705L135.548 78.0304C135.59 78.3113 135.4 78.5703 135.119 78.613L135.006 78.6301C134.725 78.6728 134.535 78.9318 134.578 79.2127L134.766 80.4489C134.808 80.7298 134.618 80.9888 134.337 81.0315L134.224 81.0486C133.943 81.0913 133.753 81.3503 133.796 81.6312L133.984 82.8674C134.026 83.1483 133.836 83.4072 133.555 83.45L133.443 83.4671C133.162 83.5098 132.971 83.7687 133.014 84.0497L133.202 85.2858C133.244 85.5668 133.054 85.8257 132.773 85.8685L132.661 85.8855C132.38 85.9283 132.189 86.1872 132.232 86.4682L132.249 86.5805C132.292 86.8615 132.101 87.1204 131.82 87.1632L131.708 87.1802C131.427 87.223 131.236 87.4819 131.279 87.7629L131.296 87.8752C131.339 88.1562 131.148 88.4151 130.867 88.4579L130.755 88.4749C130.474 88.5177 130.283 88.7766 130.326 89.0576L130.343 89.1699C130.386 89.4509 130.195 89.7098 129.914 89.7526L129.802 89.7696C129.521 89.8124 129.33 90.0713 129.373 90.3523L129.39 90.4646C129.433 90.7456 129.242 91.0045 128.962 91.0473L128.849 91.0643C128.568 91.1071 128.378 91.366 128.42 91.647L128.437 91.7593C128.48 92.0403 128.29 92.2992 128.009 92.342L127.896 92.359C127.615 92.4018 127.425 92.6607 127.467 92.9417L127.485 93.054C127.527 93.335 127.337 93.5939 127.056 93.6367L125.82 93.8247C125.539 93.8674 125.348 94.1263 125.391 94.4073L125.408 94.5197C125.451 94.8006 125.26 95.0595 124.979 95.1023L117 96.3158ZM113.585 84.8202C113.627 85.1011 113.886 85.2917 114.167 85.249L114.28 85.2319C114.561 85.1891 114.82 85.3797 114.862 85.6606L115.392 89.1444C115.435 89.4253 115.694 89.6159 115.975 89.5731L116.087 89.5561C116.368 89.5133 116.627 89.7039 116.67 89.9848L116.858 91.221C116.901 91.5019 117.159 91.6925 117.44 91.6498L117.553 91.6327C117.834 91.59 118.093 91.7805 118.135 92.0615L118.153 92.1739C118.195 92.4548 118.454 92.6454 118.735 92.6026L118.848 92.5855C119.128 92.5428 119.387 92.7334 119.43 93.0143L119.447 93.1267C119.49 93.4077 119.749 93.5982 120.03 93.5555L123.514 93.0256C123.794 92.9829 123.985 92.724 123.942 92.443L123.925 92.3306C123.883 92.0497 124.073 91.7908 124.354 91.748L124.466 91.7309C124.747 91.6882 124.938 91.4293 124.895 91.1483L124.878 91.0359C124.835 90.755 125.026 90.4961 125.307 90.4533L125.419 90.4362C125.7 90.3935 125.891 90.1346 125.848 89.8536L125.831 89.7412C125.788 89.4603 125.979 89.2014 126.26 89.1586L126.372 89.1415C126.653 89.0988 126.844 88.8399 126.801 88.5589L126.784 88.4465C126.741 88.1656 126.932 87.9067 127.213 87.8639L127.325 87.8468C127.606 87.8041 127.796 87.5452 127.754 87.2642L127.737 87.1518C127.694 86.8709 127.885 86.612 128.165 86.5692L128.278 86.5521C128.559 86.5094 128.749 86.2505 128.707 85.9695L128.519 84.7334C128.476 84.4524 128.666 84.1935 128.947 84.1508L129.06 84.1337C129.341 84.0909 129.531 83.832 129.489 83.551L129.301 82.3149C129.258 82.0339 129.448 81.775 129.729 81.7323L129.842 81.7152C130.123 81.6725 130.313 81.4135 130.27 81.1326L130.082 79.8964C130.04 79.6155 130.23 79.3565 130.511 79.3138L130.624 79.2967C130.905 79.254 131.095 78.995 131.052 78.7141L130.693 76.3542C130.651 76.0732 130.841 75.8143 131.122 75.7715L131.235 75.7544C131.516 75.7117 131.706 75.4528 131.663 75.1718L131.305 72.8119C131.262 72.5309 131.452 72.272 131.733 72.2293L131.846 72.2122C132.127 72.1695 132.317 71.9105 132.274 71.6296L131.403 65.8983C131.36 65.6174 131.551 65.3584 131.832 65.3157L131.944 65.2986C132.225 65.2559 132.415 64.9969 132.373 64.716L131.159 56.7371C131.116 56.4562 130.857 56.2656 130.577 56.3084L130.464 56.3255C130.183 56.3682 129.924 56.1776 129.882 55.8967L129.864 55.7843C129.822 55.5033 129.563 55.3128 129.282 55.3555L129.169 55.3726C128.889 55.4153 128.63 55.2248 128.587 54.9438L128.399 53.7077C128.356 53.4267 128.097 53.2361 127.816 53.2789L123.209 53.9796C122.928 54.0224 122.737 54.2813 122.78 54.5623L122.797 54.6746C122.84 54.9556 122.649 55.2145 122.368 55.2573L122.256 55.2743C121.975 55.3171 121.784 55.576 121.827 55.857L121.844 55.9693C121.887 56.2503 121.696 56.5092 121.415 56.552L121.303 56.569C121.022 56.6118 120.832 56.8707 120.874 57.1517L120.891 57.264C120.934 57.545 120.743 57.8039 120.463 57.8467L120.35 57.8637C120.069 57.9065 119.879 58.1654 119.921 58.4464L119.938 58.5587C119.981 58.8397 119.791 59.0986 119.51 59.1414L119.397 59.1584C119.116 59.2012 118.926 59.4601 118.969 59.7411L118.986 59.8534C119.028 60.1344 118.838 60.3933 118.557 60.4361L118.444 60.4531C118.164 60.4959 117.973 60.7548 118.016 61.0358L118.033 61.1481C118.075 61.4291 117.885 61.688 117.604 61.7308L117.492 61.7478C117.211 61.7906 117.02 62.0495 117.063 62.3305L117.251 63.5666C117.294 63.8476 117.103 64.1065 116.822 64.1492L116.71 64.1663C116.429 64.2091 116.238 64.468 116.281 64.7489L116.469 65.9851C116.512 66.266 116.321 66.525 116.04 66.5677L115.928 66.5848C115.647 66.6275 115.456 66.8865 115.499 67.1674L115.687 68.4036C115.73 68.6845 115.539 68.9435 115.258 68.9862L115.146 69.0033C114.865 69.046 114.674 69.305 114.717 69.5859L114.905 70.8221C114.948 71.103 114.757 71.3619 114.476 71.4047L114.364 71.4218C114.083 71.4645 113.892 71.7234 113.935 72.0044L114.636 76.6119C114.679 76.8928 114.488 77.1518 114.207 77.1945L114.095 77.2116C113.814 77.2543 113.623 77.5132 113.666 77.7942L114.196 81.2779C114.238 81.5589 114.048 81.8178 113.767 81.8605L113.655 81.8776C113.374 81.9203 113.183 82.1793 113.226 82.4602L113.585 84.8202ZM151.29 47.409C151.571 47.3663 151.83 47.5569 151.873 47.8378L151.89 47.9502C151.933 48.2312 151.742 48.4901 151.461 48.5328L150.225 48.7208C149.944 48.7636 149.753 49.0225 149.796 49.3035L149.813 49.4158C149.856 49.6968 149.665 49.9557 149.384 49.9984L147.025 50.3574C146.744 50.4001 146.553 50.659 146.596 50.94L148.835 65.6615C148.878 65.9424 148.687 66.2014 148.406 66.2441L148.294 66.2612C148.013 66.3039 147.822 66.5629 147.865 66.8438L149.591 78.194C149.634 78.4749 149.893 78.6655 150.174 78.6228L150.286 78.6057C150.567 78.5629 150.758 78.304 150.715 78.0231L150.527 76.7869C150.484 76.506 150.675 76.247 150.956 76.2043L151.068 76.1872C151.349 76.1445 151.54 75.8855 151.497 75.6046L151.309 74.3684C151.266 74.0875 151.457 73.8285 151.738 73.7858L151.85 73.7687C152.131 73.726 152.322 73.467 152.279 73.1861L152.091 71.9499C152.048 71.669 152.239 71.4101 152.52 71.3673L152.632 71.3502C152.913 71.3075 153.103 71.0486 153.061 70.7676L152.873 69.5315C152.83 69.2505 153.021 68.9916 153.302 68.9489L153.414 68.9318C153.695 68.889 153.885 68.6301 153.843 68.3491L153.655 67.113C153.612 66.832 153.803 66.5731 154.083 66.5304L154.196 66.5133C154.477 66.4706 154.667 66.2116 154.625 65.9307L154.437 64.6945C154.394 64.4136 154.584 64.1546 154.865 64.1119L154.978 64.0948C155.259 64.0521 155.449 63.7931 155.407 63.5122L155.219 62.276C155.176 61.9951 155.366 61.7361 155.647 61.6934L155.76 61.6763C156.041 61.6336 156.231 61.3747 156.188 61.0937L156 59.8576C155.958 59.5766 156.148 59.3177 156.429 59.2749L156.542 59.2578C156.823 59.2151 157.013 58.9562 156.97 58.6752L156.953 58.5629C156.911 58.2819 157.101 58.023 157.382 57.9802L157.494 57.9631C157.775 57.9204 157.966 57.6615 157.923 57.3805L156.71 49.4017C156.667 49.1208 156.408 48.9302 156.127 48.9729L156.015 48.99C155.734 49.0327 155.475 48.8422 155.432 48.5612L155.415 48.4488C155.372 48.1679 155.113 47.9773 154.832 48.0201L154.72 48.0372C154.439 48.0799 154.18 47.8893 154.137 47.6084L154.12 47.496C154.078 47.215 154.268 46.9561 154.549 46.9134L165.899 45.1871C166.18 45.1443 166.439 45.3349 166.482 45.6158L166.499 45.7282C166.542 46.0092 166.351 46.2681 166.07 46.3108L164.834 46.4989C164.553 46.5416 164.363 46.8005 164.405 47.0815L164.422 47.1938C164.465 47.4748 164.275 47.7337 163.994 47.7765L161.634 48.1354C161.353 48.1781 161.162 48.4371 161.205 48.718L163.444 63.4395C163.487 63.7205 163.296 63.9794 163.015 64.0221L162.903 64.0392C162.622 64.082 162.431 64.3409 162.474 64.6218L164.2 75.972C164.243 76.253 164.502 76.4435 164.783 76.4008L164.895 76.3837C165.176 76.341 165.367 76.082 165.324 75.8011L165.136 74.5649C165.093 74.284 165.284 74.025 165.565 73.9823L165.677 73.9652C165.958 73.9225 166.149 73.6636 166.106 73.3826L165.918 72.1464C165.875 71.8655 166.066 71.6066 166.347 71.5638L166.459 71.5467C166.74 71.504 166.931 71.2451 166.888 70.9641L166.7 69.728C166.657 69.447 166.848 69.1881 167.129 69.1454L167.241 69.1283C167.522 69.0855 167.713 68.8266 167.67 68.5456L167.482 67.3095C167.439 67.0285 167.63 66.7696 167.911 66.7269L168.023 66.7098C168.304 66.6671 168.495 66.4081 168.452 66.1272L168.264 64.891C168.221 64.6101 168.412 64.3511 168.693 64.3084L168.805 64.2913C169.086 64.2486 169.276 63.9896 169.234 63.7087L169.046 62.4725C169.003 62.1916 169.194 61.9326 169.475 61.8899L169.587 61.8728C169.868 61.8301 170.058 61.5712 170.016 61.2902L169.828 60.0541C169.785 59.7731 169.976 59.5142 170.256 59.4714L170.369 59.4543C170.65 59.4116 170.84 59.1527 170.798 58.8717L170.61 57.6356C170.567 57.3546 170.757 57.0957 171.038 57.053L171.151 57.0359C171.432 56.9931 171.622 56.7342 171.58 56.4533L171.392 55.2171C171.349 54.9361 171.539 54.6772 171.82 54.6345L171.933 54.6174C172.214 54.5747 172.404 54.3157 172.361 54.0348L172.173 52.7986C172.131 52.5177 172.321 52.2587 172.602 52.216L172.715 52.1989C172.996 52.1562 173.186 51.8972 173.143 51.6163L172.955 50.3801C172.913 50.0992 173.103 49.8403 173.384 49.7975L173.497 49.7804C173.778 49.7377 173.968 49.4788 173.925 49.1978L173.737 47.9617C173.695 47.6807 173.885 47.4218 174.166 47.379L174.279 47.3619C174.559 47.3192 174.75 47.0603 174.707 46.7793L174.69 46.667C174.647 46.386 174.389 46.1954 174.108 46.2382L173.995 46.2553C173.714 46.298 173.455 46.1074 173.413 45.8265L173.395 45.7141C173.353 45.4332 173.094 45.2426 172.813 45.2853L171.577 45.4733C171.296 45.5161 171.037 45.3255 170.994 45.0445L170.977 44.9322C170.934 44.6512 171.125 44.3923 171.406 44.3495L180.508 42.9651C180.789 42.9224 181.048 43.1129 181.091 43.3939L181.108 43.5062C181.151 43.7872 180.96 44.0461 180.679 44.0889L179.443 44.2769C179.162 44.3196 178.972 44.5785 179.014 44.8595L179.031 44.9719C179.074 45.2528 178.884 45.5118 178.603 45.5545L177.367 45.7425C177.086 45.7852 176.895 46.0442 176.938 46.3251L176.955 46.4375C176.998 46.7184 176.807 46.9774 176.526 47.0201L176.414 47.0372C176.133 47.0799 175.942 47.3389 175.985 47.6198L176.173 48.856C176.216 49.1369 176.025 49.3959 175.744 49.4386L175.632 49.4557C175.351 49.4984 175.16 49.7573 175.203 50.0383L175.391 51.2745C175.434 51.5554 175.243 51.8143 174.962 51.8571L174.85 51.8742C174.569 51.9169 174.378 52.1758 174.421 52.4568L174.609 53.6929C174.652 53.9739 174.461 54.2328 174.18 54.2755L174.068 54.2926C173.787 54.3354 173.596 54.5943 173.639 54.8753L173.827 56.1114C173.87 56.3924 173.679 56.6513 173.398 56.694L173.286 56.7111C173.005 56.7538 172.814 57.0128 172.857 57.2937L173.045 58.5299C173.088 58.8108 172.897 59.0698 172.616 59.1125L172.504 59.1296C172.223 59.1723 172.032 59.4313 172.075 59.7122L172.263 60.9484C172.306 61.2293 172.115 61.4883 171.834 61.531L171.722 61.5481C171.441 61.5908 171.251 61.8497 171.293 62.1307L171.481 63.3668C171.524 63.6478 171.333 63.9067 171.053 63.9495L170.94 63.9666C170.659 64.0093 170.469 64.2682 170.511 64.5492L170.699 65.7853C170.742 66.0663 170.552 66.3252 170.271 66.3679L170.158 66.385C169.877 66.4278 169.687 66.6867 169.729 66.9676L169.917 68.2038C169.96 68.4847 169.77 68.7437 169.489 68.7864L169.376 68.8035C169.095 68.8462 168.905 69.1052 168.947 69.3861L169.135 70.6223C169.178 70.9032 168.988 71.1622 168.707 71.2049L168.594 71.222C168.313 71.2647 168.123 71.5237 168.166 71.8046L168.354 73.0408C168.396 73.3217 168.206 73.5806 167.925 73.6234L167.812 73.6405C167.531 73.6832 167.341 73.9421 167.384 74.2231L167.572 75.4592C167.614 75.7402 167.424 75.9991 167.143 76.0419L167.03 76.0589C166.75 76.1017 166.559 76.3606 166.602 76.6416L166.79 77.8777C166.832 78.1587 166.642 78.4176 166.361 78.4603L166.249 78.4774C165.968 78.5202 165.777 78.7791 165.82 79.06L166.008 80.2962C166.05 80.5771 165.86 80.8361 165.579 80.8788L165.467 80.8959C165.186 80.9386 164.995 81.1976 165.038 81.4785L165.226 82.7147C165.269 82.9956 165.078 83.2546 164.797 83.2973L164.685 83.3144C164.404 83.3571 164.213 83.6161 164.256 83.897L164.444 85.1332C164.487 85.4141 164.296 85.673 164.015 85.7158L163.903 85.7329C163.622 85.7756 163.431 86.0345 163.474 86.3155L163.662 87.5516C163.705 87.8326 163.514 88.0915 163.233 88.1343L163.121 88.1513C162.84 88.1941 162.649 88.453 162.692 88.734L162.709 88.8463C162.752 89.1273 162.561 89.3862 162.28 89.429L162.168 89.446C161.887 89.4888 161.628 89.2982 161.585 89.0173L157.979 65.3055C157.936 65.0246 158.127 64.7656 158.408 64.7229L158.52 64.7058C158.801 64.6631 158.992 64.4041 158.949 64.1232L158.59 61.7633C158.547 61.4823 158.288 61.2918 158.007 61.3345L157.895 61.3516C157.614 61.3943 157.423 61.6532 157.466 61.9342L157.654 63.1703C157.697 63.4513 157.506 63.7102 157.225 63.753L157.113 63.7701C156.832 63.8128 156.641 64.0717 156.684 64.3527L156.872 65.5888C156.915 65.8698 156.724 66.1287 156.443 66.1714L156.331 66.1885C156.05 66.2313 155.859 66.4902 155.902 66.7711L156.09 68.0073C156.133 68.2882 155.942 68.5472 155.661 68.5899L155.549 68.607C155.268 68.6497 155.078 68.9087 155.12 69.1896L155.308 70.4258C155.351 70.7067 155.16 70.9657 154.88 71.0084L154.767 71.0255C154.486 71.0682 154.296 71.3272 154.338 71.6081L154.526 72.8443C154.569 73.1252 154.379 73.3841 154.098 73.4269L153.985 73.444C153.704 73.4867 153.514 73.7456 153.556 74.0266L153.744 75.2627C153.787 75.5437 153.597 75.8026 153.316 75.8454L153.203 75.8624C152.922 75.9052 152.732 76.1641 152.774 76.4451L152.962 77.6812C153.005 77.9622 152.815 78.2211 152.534 78.2638L152.421 78.2809C152.14 78.3237 151.95 78.5826 151.993 78.8635L152.181 80.0997C152.223 80.3806 152.033 80.6396 151.752 80.6823L151.639 80.6994C151.358 80.7421 151.168 81.0011 151.211 81.282L151.399 82.5182C151.441 82.7991 151.251 83.0581 150.97 83.1008L150.857 83.1179C150.577 83.1606 150.386 83.4196 150.429 83.7005L150.617 84.9367C150.659 85.2176 150.469 85.4765 150.188 85.5193L150.076 85.5364C149.795 85.5791 149.604 85.838 149.647 86.119L149.835 87.3551C149.877 87.6361 149.687 87.895 149.406 87.9378L149.294 87.9548C149.013 87.9976 148.822 88.2565 148.865 88.5375L149.053 89.7736C149.096 90.0546 148.905 90.3135 148.624 90.3562L148.512 90.3733C148.231 90.4161 148.04 90.675 148.083 90.9559L148.1 91.0683C148.143 91.3493 147.952 91.6082 147.671 91.6509L147.559 91.668C147.278 91.7108 147.019 91.5202 146.976 91.2392L143.37 67.5275C143.327 67.2466 143.518 66.9876 143.799 66.9449L143.911 66.9278C144.192 66.8851 144.382 66.6261 144.34 66.3452L142.101 51.6237C142.058 51.3427 141.799 51.1522 141.518 51.1949L141.406 51.212C141.125 51.2547 140.866 51.0641 140.823 50.7832L140.806 50.6708C140.763 50.3899 140.504 50.1993 140.223 50.242L140.111 50.2591C139.83 50.3019 139.571 50.1113 139.528 49.8303L139.511 49.718C139.468 49.437 139.659 49.1781 139.94 49.1353L151.29 47.409ZM177.119 87.172C176.838 87.2147 176.58 87.0241 176.537 86.7432L176.52 86.6308C176.477 86.3499 176.668 86.0909 176.949 86.0482L178.185 85.8602C178.466 85.8175 178.656 85.5585 178.613 85.2776L178.596 85.1652C178.554 84.8843 178.744 84.6253 179.025 84.5826L180.261 84.3946C180.542 84.3518 180.733 84.0929 180.69 83.812L180.673 83.6996C180.63 83.4186 180.821 83.1597 181.102 83.117L181.214 83.0999C181.495 83.0571 181.686 82.7982 181.643 82.5173L181.455 81.2811C181.412 81.0002 181.603 80.7412 181.884 80.6985L181.996 80.6814C182.277 80.6387 182.468 80.3797 182.425 80.0988L181.895 76.6151C181.852 76.3341 182.043 76.0752 182.324 76.0325L182.436 76.0154C182.717 75.9726 182.908 75.7137 182.865 75.4327L182.506 73.0728C182.463 72.7919 182.654 72.5329 182.935 72.4902L183.047 72.4731C183.328 72.4304 183.519 72.1714 183.476 71.8905L182.946 68.4068C182.903 68.1258 183.094 67.8669 183.375 67.8242L183.487 67.8071C183.768 67.7643 183.959 67.5054 183.916 67.2244L183.557 64.8645C183.514 64.5836 183.705 64.3246 183.986 64.2819L184.098 64.2648C184.379 64.2221 184.57 63.9631 184.527 63.6822L183.997 60.1985C183.955 59.9175 184.145 59.6586 184.426 59.6159L184.538 59.5988C184.819 59.556 185.01 59.2971 184.967 59.0162L184.608 56.6562C184.566 56.3753 184.756 56.1163 185.037 56.0736L185.149 56.0565C185.43 56.0138 185.621 55.7548 185.578 55.4739L185.048 51.9902C185.006 51.7092 185.196 51.4503 185.477 51.4076L185.59 51.3905C185.87 51.3477 186.061 51.0888 186.018 50.8079L185.659 48.4479C185.617 48.167 185.807 47.908 186.088 47.8653L186.201 47.8482C186.481 47.8055 186.672 47.5465 186.629 47.2656L186.27 44.9057C186.228 44.6247 185.969 44.4342 185.688 44.4769L185.575 44.494C185.294 44.5367 185.036 44.3461 184.993 44.0652L184.976 43.9528C184.933 43.6719 184.674 43.4813 184.393 43.524L183.157 43.712C182.876 43.7548 182.617 43.5642 182.574 43.2833L182.557 43.1709C182.514 42.8899 182.705 42.631 182.986 42.5883L195.46 40.691C195.741 40.6483 196 40.8389 196.043 41.1198L196.06 41.2322C196.102 41.5131 195.912 41.7721 195.631 41.8148L194.395 42.0028C194.114 42.0456 193.923 42.3045 193.966 42.5854L193.983 42.6978C194.026 42.9788 193.835 43.2377 193.554 43.2804L192.318 43.4684C192.037 43.5112 191.847 43.7701 191.889 44.0511L191.906 44.1634C191.949 44.4444 191.759 44.7033 191.478 44.7461L191.365 44.7631C191.084 44.8059 190.894 45.0648 190.936 45.3458L191.124 46.5819C191.167 46.8629 190.977 47.1218 190.696 47.1645L190.583 47.1816C190.302 47.2244 190.112 47.4833 190.154 47.7642L190.513 50.1242C190.556 50.4051 190.366 50.6641 190.085 50.7068L189.972 50.7239C189.691 50.7666 189.501 51.0256 189.543 51.3065L190.073 54.7902C190.116 55.0712 189.925 55.3301 189.645 55.3728L189.532 55.3899C189.251 55.4326 189.061 55.6916 189.103 55.9725L189.462 58.3325C189.505 58.6134 189.314 58.8724 189.034 58.9151L188.921 58.9322C188.64 58.9749 188.45 59.2338 188.492 59.5148L189.022 62.9985C189.065 63.2795 188.874 63.5384 188.593 63.5811L188.481 63.5982C188.2 63.6409 188.01 63.8999 188.052 64.1808L188.411 66.5408C188.454 66.8217 188.263 67.0806 187.982 67.1234L187.87 67.1405C187.589 67.1832 187.399 67.4421 187.441 67.7231L187.971 71.2068C188.014 71.4877 187.823 71.7467 187.542 71.7894L187.43 71.8065C187.149 71.8492 186.958 72.1082 187.001 72.3891L187.36 74.7491C187.403 75.03 187.212 75.2889 186.931 75.3317L186.819 75.3488C186.538 75.3915 186.347 75.6504 186.39 75.9314L186.92 79.4151C186.963 79.696 186.772 79.955 186.491 79.9977L186.379 80.0148C186.098 80.0575 185.907 80.3165 185.95 80.5974L186.309 82.9574C186.352 83.2383 186.611 83.4289 186.892 83.3861L187.004 83.369C187.285 83.3263 187.544 83.5169 187.587 83.7978L187.604 83.9102C187.646 84.1912 187.905 84.3817 188.186 84.339L189.422 84.151C189.703 84.1083 189.962 84.2988 190.005 84.5798L190.022 84.6921C190.065 84.9731 189.874 85.232 189.593 85.2748L177.119 87.172ZM194.433 84.5387C194.152 84.5815 193.893 84.3909 193.85 84.1099L193.833 83.9976C193.79 83.7166 193.981 83.4577 194.262 83.415L195.498 83.2269C195.779 83.1842 195.969 82.9253 195.927 82.6443L195.91 82.5319C195.867 82.251 196.057 81.9921 196.338 81.9493L197.575 81.7613C197.855 81.7186 198.046 81.4596 198.003 81.1787L197.986 81.0663C197.943 80.7854 198.134 80.5264 198.415 80.4837L198.527 80.4666C198.808 80.4239 198.999 80.1649 198.956 79.884L198.768 78.6478C198.725 78.3669 198.916 78.108 199.197 78.0652L199.309 78.0481C199.59 78.0054 199.781 77.7465 199.738 77.4655L199.208 73.9818C199.166 73.7009 199.356 73.4419 199.637 73.3992L199.749 73.3821C200.03 73.3394 200.221 73.0804 200.178 72.7995L199.819 70.4396C199.777 70.1586 199.967 69.8997 200.248 69.8569L200.36 69.8398C200.641 69.7971 200.832 69.5382 200.789 69.2572L200.259 65.7735C200.217 65.4926 200.407 65.2336 200.688 65.1909L200.801 65.1738C201.081 65.1311 201.272 64.8721 201.229 64.5912L200.87 62.2313C200.828 61.9503 201.018 61.6914 201.299 61.6486L201.412 61.6315C201.692 61.5888 201.883 61.3299 201.84 61.0489L201.31 57.5652C201.268 57.2843 201.458 57.0253 201.739 56.9826L201.852 56.9655C202.133 56.9228 202.323 56.6638 202.28 56.3829L201.921 54.023C201.879 53.742 202.069 53.4831 202.35 53.4403L202.463 53.4233C202.744 53.3805 202.934 53.1216 202.891 52.8406L202.362 49.3569C202.319 49.076 202.509 48.817 202.79 48.7743L202.903 48.7572C203.184 48.7145 203.374 48.4555 203.332 48.1746L202.973 45.8147C202.93 45.5337 203.12 45.2748 203.401 45.2321L203.514 45.215C203.795 45.1722 203.985 44.9133 203.943 44.6323L203.584 42.2724C203.541 41.9915 203.282 41.8009 203.001 41.8436L202.889 41.8607C202.608 41.9034 202.349 41.7129 202.306 41.4319L202.289 41.3196C202.246 41.0386 201.987 40.848 201.706 40.8908L200.47 41.0788C200.189 41.1215 199.93 40.9309 199.888 40.65L199.87 40.5376C199.828 40.2567 200.018 39.9977 200.299 39.955L206.03 39.0833C206.311 39.0406 206.57 39.2311 206.613 39.5121L206.972 41.872C207.015 42.153 207.274 42.3435 207.555 42.3008L207.667 42.2837C207.948 42.241 208.207 42.4316 208.25 42.7125L208.95 47.32C208.993 47.6009 209.252 47.7915 209.533 47.7488L209.645 47.7317C209.926 47.689 210.185 47.8795 210.228 48.1605L210.587 50.5204C210.63 50.8014 210.889 50.9919 211.17 50.9492L211.282 50.9321C211.563 50.8894 211.822 51.0799 211.865 51.3609L212.394 54.8446C212.437 55.1255 212.696 55.3161 212.977 55.2734L213.089 55.2563C213.37 55.2136 213.629 55.4041 213.672 55.6851L214.031 58.045C214.074 58.326 214.333 58.5165 214.614 58.4738L214.726 58.4567C215.007 58.414 215.266 58.6046 215.309 58.8855L215.838 62.3692C215.881 62.6502 216.14 62.8407 216.421 62.798L216.533 62.7809C216.814 62.7382 217.073 62.9287 217.116 63.2097L217.475 65.5696C217.518 65.8506 217.777 66.0411 218.058 65.9984L218.17 65.9813C218.451 65.9386 218.71 66.1292 218.753 66.4101L219.453 71.0176C219.496 71.2985 219.755 71.4891 220.036 71.4464L220.148 71.4293C220.429 71.3866 220.62 71.1276 220.577 70.8467L220.047 67.363C220.005 67.082 220.195 66.8231 220.476 66.7803L220.588 66.7633C220.869 66.7205 221.06 66.4616 221.017 66.1806L220.658 63.8207C220.616 63.5398 220.806 63.2808 221.087 63.2381L221.199 63.221C221.48 63.1783 221.671 62.9193 221.628 62.6384L221.098 59.1547C221.056 58.8737 221.246 58.6148 221.527 58.5721L221.64 58.555C221.921 58.5122 222.111 58.2533 222.068 57.9723L221.709 55.6124C221.667 55.3315 221.857 55.0725 222.138 55.0298L222.251 55.0127C222.532 54.97 222.722 54.711 222.679 54.4301L222.149 50.9464C222.107 50.6654 222.297 50.4065 222.578 50.3638L222.691 50.3467C222.972 50.3039 223.162 50.045 223.119 49.7641L222.761 47.4041C222.718 47.1232 222.908 46.8642 223.189 46.8215L223.302 46.8044C223.583 46.7617 223.773 46.5027 223.73 46.2218L223.201 42.7381C223.158 42.4571 223.348 42.1982 223.629 42.1555L223.742 42.1384C224.023 42.0956 224.213 41.8367 224.171 41.5558L223.812 39.1958C223.769 38.9149 223.51 38.7243 223.229 38.767L223.117 38.7841C222.836 38.8269 222.577 38.6363 222.534 38.3553L222.517 38.243C222.474 37.962 222.215 37.7714 221.934 37.8142L220.698 38.0022C220.417 38.0449 220.158 37.8544 220.116 37.5734L220.098 37.461C220.056 37.1801 220.246 36.9211 220.527 36.8784L230.754 35.323C231.035 35.2803 231.294 35.4709 231.336 35.7518L231.353 35.8642C231.396 36.1451 231.205 36.4041 230.925 36.4468L229.688 36.6348C229.407 36.6776 229.217 36.9365 229.26 37.2174L229.277 37.3298C229.319 37.6108 229.129 37.8697 228.848 37.9124L227.612 38.1004C227.331 38.1432 227.14 38.4021 227.183 38.6831L227.2 38.7954C227.243 39.0764 227.052 39.3353 226.771 39.378L226.659 39.3951C226.378 39.4379 226.187 39.6968 226.23 39.9778L226.418 41.2139C226.461 41.4949 226.27 41.7538 225.989 41.7965L225.877 41.8136C225.596 41.8564 225.405 42.1153 225.448 42.3962L225.978 45.8799C226.021 46.1609 225.83 46.4198 225.549 46.4626L225.437 46.4797C225.156 46.5224 224.965 46.7813 225.008 47.0623L225.367 49.4222C225.41 49.7032 225.219 49.9621 224.938 50.0048L224.826 50.0219C224.545 50.0646 224.354 50.3236 224.397 50.6045L224.927 54.0882C224.97 54.3692 224.779 54.6281 224.498 54.6709L224.386 54.688C224.105 54.7307 223.914 54.9896 223.957 55.2706L224.316 57.6305C224.359 57.9114 224.168 58.1704 223.887 58.2131L223.775 58.2302C223.494 58.2729 223.303 58.5319 223.346 58.8128L223.876 62.2965C223.919 62.5775 223.728 62.8364 223.447 62.8792L223.335 62.8962C223.054 62.939 222.863 63.1979 222.906 63.4789L223.265 65.8388C223.308 66.1197 223.117 66.3787 222.836 66.4214L222.724 66.4385C222.443 66.4812 222.252 66.7402 222.295 67.0211L222.825 70.5048C222.867 70.7858 222.677 71.0447 222.396 71.0875L222.284 71.1045C222.003 71.1473 221.812 71.4062 221.855 71.6872L222.214 74.0471C222.256 74.328 222.066 74.587 221.785 74.6297L221.673 74.6468C221.392 74.6895 221.201 74.9485 221.244 75.2294L221.774 78.7131C221.816 78.9941 221.626 79.253 221.345 79.2957L221.232 79.3128C220.951 79.3556 220.761 79.6145 220.804 79.8955L220.821 80.0078C220.863 80.2888 220.673 80.5477 220.392 80.5904L219.156 80.7785C218.875 80.8212 218.616 80.6306 218.573 80.3497L218.214 77.9897C218.172 77.7088 217.913 77.5182 217.632 77.561L217.519 77.578C217.238 77.6208 216.979 77.4302 216.937 77.1493L216.236 72.5418C216.193 72.2608 215.934 72.0702 215.653 72.113L215.541 72.1301C215.26 72.1728 215.001 71.9822 214.958 71.7013L214.257 67.0938C214.215 66.8128 213.956 66.6223 213.675 66.665L213.562 66.6821C213.282 66.7248 213.023 66.5343 212.98 66.2533L212.621 63.8934C212.578 63.6124 212.319 63.4219 212.038 63.4646L211.926 63.4817C211.645 63.5244 211.386 63.3338 211.343 63.0529L210.813 59.5692C210.771 59.2882 210.512 59.0977 210.231 59.1404L210.118 59.1575C209.838 59.2002 209.579 59.0096 209.536 58.7287L209.177 56.3688C209.134 56.0878 208.875 55.8973 208.594 55.94L208.482 55.9571C208.201 55.9998 207.942 55.8092 207.899 55.5283L207.369 52.0446C207.327 51.7636 207.068 51.5731 206.787 51.6158L206.674 51.6329C206.394 51.6756 206.135 51.485 206.092 51.2041L205.733 48.8442C205.69 48.5632 205.431 48.3726 205.15 48.4154L205.038 48.4325C204.757 48.4752 204.566 48.7341 204.609 49.0151L205.139 52.4988C205.182 52.7797 204.991 53.0387 204.71 53.0814L204.598 53.0985C204.317 53.1412 204.126 53.4002 204.169 53.6811L204.528 56.0411C204.571 56.322 204.38 56.5809 204.099 56.6237L203.987 56.6408C203.706 56.6835 203.515 56.9424 203.558 57.2234L204.088 60.7071C204.131 60.988 203.94 61.247 203.659 61.2897L203.547 61.3068C203.266 61.3495 203.075 61.6085 203.118 61.8894L203.477 64.2493C203.52 64.5303 203.329 64.7892 203.048 64.832L202.936 64.8491C202.655 64.8918 202.464 65.1507 202.507 65.4317L203.037 68.9154C203.08 69.1963 202.889 69.4553 202.608 69.498L202.496 69.5151C202.215 69.5578 202.024 69.8168 202.067 70.0977L202.426 72.4576C202.468 72.7386 202.278 72.9975 201.997 73.0403L201.885 73.0574C201.604 73.1001 201.413 73.359 201.456 73.64L201.986 77.1237C202.028 77.4046 201.838 77.6636 201.557 77.7063L201.445 77.7234C201.164 77.7661 200.973 78.0251 201.016 78.306L201.375 80.6659C201.417 80.9469 201.676 81.1375 201.957 81.0947L202.07 81.0776C202.351 81.0349 202.61 81.2255 202.652 81.5064L202.669 81.6188C202.712 81.8997 202.971 82.0903 203.252 82.0476L204.488 81.8596C204.769 81.8168 205.028 82.0074 205.071 82.2884L205.088 82.4007C205.131 82.6817 204.94 82.9406 204.659 82.9833L194.433 84.5387ZM237.697 77.9585C237.416 78.0012 237.157 77.8106 237.114 77.5297L237.097 77.4173C237.054 77.1363 236.795 76.9458 236.514 76.9885L236.402 77.0056C236.121 77.0483 235.862 76.8578 235.819 76.5768L235.802 76.4644C235.76 76.1835 235.501 75.9929 235.22 76.0357L235.107 76.0527C234.826 76.0955 234.568 75.9049 234.525 75.624L234.508 75.5116C234.465 75.2306 234.206 75.0401 233.925 75.0828L233.813 75.0999C233.532 75.1426 233.273 74.952 233.23 74.6711L233.042 73.4349C232.999 73.154 232.74 72.9634 232.459 73.0062L232.347 73.0232C232.066 73.066 231.807 72.8754 231.764 72.5945L231.235 69.1107C231.192 68.8298 230.933 68.6392 230.652 68.682L230.54 68.6991C230.259 68.7418 230 68.5512 229.957 68.2703L229.256 63.6628C229.214 63.3818 229.404 63.1229 229.685 63.0802L229.797 63.0631C230.078 63.0203 230.269 62.7614 230.226 62.4805L229.696 58.9967C229.654 58.7158 229.844 58.4569 230.125 58.4141L230.237 58.397C230.518 58.3543 230.709 58.0954 230.666 57.8144L230.136 54.3307C230.094 54.0498 230.284 53.7908 230.565 53.7481L230.678 53.731C230.959 53.6883 231.149 53.4293 231.106 53.1484L230.918 51.9122C230.876 51.6313 231.066 51.3723 231.347 51.3296L231.46 51.3125C231.74 51.2698 231.931 51.0108 231.888 50.7299L231.7 49.4937C231.658 49.2128 231.848 48.9539 232.129 48.9111L232.241 48.894C232.522 48.8513 232.713 48.5924 232.67 48.3114L232.482 47.0753C232.439 46.7943 232.63 46.5354 232.911 46.4927L233.023 46.4756C233.304 46.4328 233.495 46.1739 233.452 45.8929L233.264 44.6568C233.221 44.3758 233.412 44.1169 233.693 44.0742L233.805 44.0571C234.086 44.0143 234.277 43.7554 234.234 43.4745L234.217 43.3621C234.174 43.0811 234.365 42.8222 234.646 42.7795L234.758 42.7624C235.039 42.7196 235.23 42.4607 235.187 42.1798L235.17 42.0674C235.127 41.7864 235.318 41.5275 235.599 41.4848L235.711 41.4677C235.992 41.4249 236.183 41.166 236.14 40.8851L236.123 40.7727C236.08 40.4917 236.271 40.2328 236.552 40.1901L236.664 40.173C236.945 40.1302 237.135 39.8713 237.093 39.5904L237.076 39.478C237.033 39.197 237.223 38.9381 237.504 38.8954L237.617 38.8783C237.898 38.8355 238.088 38.5766 238.046 38.2957L238.028 38.1833C237.986 37.9023 238.176 37.6434 238.457 37.6007L238.57 37.5836C238.851 37.5408 239.041 37.2819 238.998 37.001L238.981 36.8886C238.939 36.6076 239.129 36.3487 239.41 36.306L240.646 36.118C240.927 36.0752 241.118 35.8163 241.075 35.5353L241.058 35.423C241.015 35.142 241.206 34.8831 241.487 34.8403L242.723 34.6523C243.004 34.6096 243.194 34.3507 243.152 34.0697L243.135 33.9573C243.092 33.6764 243.282 33.4175 243.563 33.3747L251.542 32.1612C251.823 32.1185 252.082 32.309 252.125 32.59L252.142 32.7023C252.185 32.9833 252.444 33.1739 252.725 33.1311L253.961 32.9431C254.242 32.9004 254.501 33.091 254.543 33.3719L254.56 33.4843C254.603 33.7652 254.862 33.9558 255.143 33.9131L256.379 33.7251C256.66 33.6823 256.851 33.4234 256.808 33.1424L256.791 33.0301C256.748 32.7491 256.939 32.4902 257.22 32.4474L257.332 32.4304C257.613 32.3876 257.804 32.1287 257.761 31.8477L257.744 31.7354C257.701 31.4544 257.892 31.1955 258.172 31.1527L258.285 31.1357C258.566 31.0929 258.825 31.2835 258.867 31.5644L259.226 33.9244C259.269 34.2053 259.079 34.4643 258.798 34.507L258.685 34.5241C258.404 34.5668 258.214 34.8258 258.256 35.1067L258.786 38.5904C258.829 38.8714 258.638 39.1303 258.358 39.173L258.245 39.1901C257.964 39.2329 257.774 39.4918 257.816 39.7727L258.346 43.2564C258.389 43.5374 258.198 43.7963 257.917 43.8391L257.805 43.8562C257.524 43.8989 257.334 44.1578 257.376 44.4388L257.564 45.6749C257.607 45.9559 257.416 46.2148 257.136 46.2575L257.023 46.2746C256.742 46.3174 256.483 46.1268 256.441 45.8459L255.398 38.9908C255.355 38.7099 255.096 38.5193 254.815 38.562L254.703 38.5791C254.422 38.6218 254.163 38.4313 254.12 38.1503L253.932 36.9142C253.89 36.6332 253.631 36.4426 253.35 36.4854L253.237 36.5025C252.956 36.5452 252.697 36.3546 252.655 36.0737L252.638 35.9613C252.595 35.6804 252.336 35.4898 252.055 35.5325L251.943 35.5496C251.662 35.5923 251.403 35.4018 251.36 35.1208L251.343 35.0084C251.3 34.7275 251.041 34.5369 250.76 34.5797L243.905 35.6223C243.624 35.665 243.434 35.924 243.476 36.2049L243.494 36.3173C243.536 36.5982 243.346 36.8572 243.065 36.8999L242.952 36.917C242.671 36.9597 242.481 37.2187 242.524 37.4996L242.541 37.612C242.583 37.8929 242.393 38.1519 242.112 38.1946L241.999 38.2117C241.719 38.2544 241.528 38.5134 241.571 38.7943L241.588 38.9067C241.631 39.1876 241.44 39.4466 241.159 39.4893L241.047 39.5064C240.766 39.5491 240.575 39.8081 240.618 40.089L240.635 40.2014C240.678 40.4823 240.487 40.7413 240.206 40.784L240.094 40.8011C239.813 40.8438 239.622 41.1028 239.665 41.3837L239.682 41.4961C239.725 41.777 239.534 42.036 239.253 42.0787L239.141 42.0958C238.86 42.1385 238.669 42.3975 238.712 42.6784L238.729 42.7908C238.772 43.0717 238.581 43.3307 238.3 43.3734L238.188 43.3905C237.907 43.4332 237.717 43.6922 237.759 43.9731L237.947 45.2093C237.99 45.4902 237.799 45.7491 237.519 45.7919L237.406 45.809C237.125 45.8517 236.935 46.1106 236.977 46.3916L237.165 47.6277C237.208 47.9087 237.018 48.1676 236.737 48.2104L236.624 48.2274C236.343 48.2702 236.153 48.5291 236.195 48.8101L236.383 50.0462C236.426 50.3272 236.236 50.5861 235.955 50.6288L235.842 50.6459C235.561 50.6887 235.371 50.9476 235.413 51.2285L235.601 52.4647C235.644 52.7456 235.454 53.0046 235.173 53.0473L235.06 53.0644C234.779 53.1071 234.589 53.3661 234.632 53.647L235.332 58.2545C235.375 58.5355 235.184 58.7944 234.904 58.8371L234.791 58.8542C234.51 58.8969 234.32 59.1559 234.362 59.4368L234.892 62.9205C234.935 63.2015 234.744 63.4604 234.463 63.5032L234.351 63.5203C234.07 63.563 233.88 63.8219 233.922 64.1029L234.281 66.4628C234.324 66.7437 234.583 66.9343 234.864 66.8916L234.976 66.8745C235.257 66.8318 235.516 67.0223 235.559 67.3033L236.089 70.787C236.131 71.0679 236.39 71.2585 236.671 71.2158L236.784 71.1987C237.065 71.156 237.324 71.3465 237.366 71.6275L237.554 72.8636C237.597 73.1446 237.856 73.3352 238.137 73.2924L238.249 73.2753C238.53 73.2326 238.789 73.4232 238.832 73.7041L238.849 73.8165C238.892 74.0974 239.151 74.288 239.432 74.2453L239.544 74.2282C239.825 74.1855 240.084 74.376 240.127 74.657L240.144 74.7694C240.186 75.0503 240.445 75.2409 240.726 75.1981L245.334 74.4974C245.615 74.4546 245.805 74.1957 245.763 73.9147L245.745 73.8024C245.703 73.5214 245.893 73.2625 246.174 73.2197L247.41 73.0317C247.691 72.989 247.882 72.7301 247.839 72.4491L247.822 72.3367C247.779 72.0558 247.97 71.7969 248.251 71.7541L248.363 71.737C248.644 71.6943 248.835 71.4354 248.792 71.1544L248.775 71.042C248.732 70.7611 248.923 70.5022 249.204 70.4594L249.316 70.4423C249.597 70.3996 249.788 70.1407 249.745 69.8597L249.215 66.376C249.172 66.0951 249.363 65.8361 249.644 65.7934L249.756 65.7763C250.037 65.7336 250.228 65.4746 250.185 65.1937L249.826 62.8337C249.783 62.5528 249.974 62.2939 250.255 62.2511L250.367 62.234C250.648 62.1913 250.839 61.9324 250.796 61.6514L250.437 59.2915C250.394 59.0105 250.585 58.7516 250.866 58.7089L250.978 58.6918C251.259 58.6491 251.45 58.3901 251.407 58.1092L250.877 54.6255C250.834 54.3445 250.576 54.1539 250.295 54.1967L249.058 54.3847C248.777 54.4274 248.519 54.2368 248.476 53.9559L248.459 53.8435C248.416 53.5626 248.157 53.372 247.876 53.4147L246.64 53.6027C246.359 53.6455 246.1 53.4549 246.057 53.174L246.04 53.0616C245.998 52.7806 246.188 52.5217 246.469 52.479L258.943 50.5817C259.224 50.539 259.483 50.7296 259.526 51.0105L259.543 51.1229C259.585 51.4038 259.395 51.6628 259.114 51.7055L257.878 51.8935C257.597 51.9363 257.406 52.1952 257.449 52.4761L257.466 52.5885C257.509 52.8695 257.318 53.1284 257.037 53.1711L255.801 53.3592C255.52 53.4019 255.33 53.6608 255.372 53.9418L255.902 57.4255C255.945 57.7064 255.754 57.9654 255.473 58.0081L255.361 58.0252C255.08 58.0679 254.889 58.3269 254.932 58.6078L255.291 60.9677C255.334 61.2487 255.143 61.5076 254.862 61.5504L254.75 61.5674C254.469 61.6102 254.278 61.8691 254.321 62.1501L254.68 64.51C254.723 64.7909 254.532 65.0499 254.251 65.0926L254.139 65.1097C253.858 65.1524 253.667 65.4114 253.71 65.6923L254.24 69.176C254.283 69.457 254.092 69.7159 253.811 69.7587L253.699 69.7757C253.418 69.8185 253.227 70.0774 253.27 70.3584L253.629 72.7183C253.672 72.9992 253.481 73.2582 253.2 73.3009L253.088 73.318C252.807 73.3607 252.616 73.6197 252.659 73.9006L252.847 75.1368C252.89 75.4177 252.699 75.6767 252.418 75.7194L252.306 75.7365C252.025 75.7792 251.766 75.5886 251.723 75.3077L251.193 71.824C251.151 71.543 250.892 71.3525 250.611 71.3952L250.498 71.4123C250.218 71.455 250.027 71.714 250.07 71.9949L250.087 72.1073C250.13 72.3882 249.939 72.6472 249.658 72.6899L249.546 72.707C249.265 72.7497 249.074 73.0087 249.117 73.2896L249.134 73.402C249.177 73.6829 248.986 73.9419 248.705 73.9846L248.593 74.0017C248.312 74.0444 248.121 74.3034 248.164 74.5843L248.181 74.6967C248.224 74.9776 248.033 75.2366 247.752 75.2793L247.64 75.2964C247.359 75.3391 247.168 75.5981 247.211 75.879L247.228 75.9914C247.271 76.2723 247.08 76.5313 246.799 76.574L237.697 77.9585ZM274.34 59.1053C274.297 58.8244 274.488 58.5654 274.769 58.5227L274.881 58.5056C275.162 58.4629 275.353 58.2039 275.31 57.923L274.78 54.4393C274.737 54.1583 274.928 53.8994 275.209 53.8567L275.321 53.8396C275.602 53.7968 275.793 53.5379 275.75 53.257L275.391 50.897C275.348 50.6161 275.539 50.3571 275.82 50.3144L275.932 50.2973C276.213 50.2546 276.404 49.9957 276.361 49.7147L275.831 46.231C275.788 45.95 275.979 45.6911 276.26 45.6484L276.372 45.6313C276.653 45.5886 276.844 45.3296 276.801 45.0487L276.442 42.6887C276.399 42.4078 276.59 42.1488 276.871 42.1061L276.983 42.089C277.264 42.0463 277.455 41.7874 277.412 41.5064L276.882 38.0227C276.839 37.7418 277.03 37.4828 277.311 37.4401L277.423 37.423C277.704 37.3803 277.895 37.1213 277.852 36.8404L277.493 34.4804C277.45 34.1995 277.641 33.9406 277.922 33.8978L278.034 33.8807C278.315 33.838 278.506 33.5791 278.463 33.2981L278.104 30.9382C278.061 30.6572 277.803 30.4667 277.522 30.5094L277.409 30.5265C277.128 30.5692 276.869 30.3786 276.827 30.0977L276.809 29.9853C276.767 29.7044 276.508 29.5138 276.227 29.5565L274.991 29.7446C274.71 29.7873 274.451 29.5967 274.408 29.3158L274.391 29.2034C274.348 28.9224 274.539 28.6635 274.82 28.6208L287.294 26.7235C287.575 26.6808 287.834 26.8714 287.876 27.1523L287.893 27.2647C287.936 27.5457 287.746 27.8046 287.465 27.8473L286.229 28.0353C285.948 28.0781 285.757 28.337 285.8 28.618L285.817 28.7303C285.86 29.0113 285.669 29.2702 285.388 29.3129L284.152 29.501C283.871 29.5437 283.68 29.8026 283.723 30.0836L283.74 30.1959C283.783 30.4769 283.592 30.7358 283.311 30.7786L283.199 30.7957C282.918 30.8384 282.727 31.0973 282.77 31.3783L282.958 32.6144C283.001 32.8954 282.81 33.1543 282.529 33.197L282.417 33.2141C282.136 33.2569 281.946 33.5158 281.988 33.7968L282.347 36.1567C282.39 36.4376 282.199 36.6966 281.918 36.7393L281.806 36.7564C281.525 36.7991 281.335 37.0581 281.377 37.339L281.907 40.8227C281.95 41.1037 281.759 41.3626 281.478 41.4053L281.366 41.4224C281.085 41.4652 280.894 41.7241 280.937 42.005L281.296 44.365C281.339 44.6459 281.148 44.9049 280.867 44.9476L280.755 44.9647C280.474 45.0074 280.283 45.2664 280.326 45.5473L280.856 49.031C280.899 49.312 280.708 49.5709 280.427 49.6136L280.315 49.6307C280.034 49.6735 279.843 49.9324 279.886 50.2133L280.245 52.5733C280.288 52.8542 280.097 53.1132 279.816 53.1559L279.704 53.173C279.423 53.2157 279.232 53.4747 279.275 53.7556L279.805 57.2393C279.848 57.5203 279.657 57.7792 279.376 57.8219L279.264 57.839C278.983 57.8818 278.792 58.1407 278.835 58.4216L280.049 66.4005C280.091 66.6814 280.35 66.872 280.631 66.8293L280.743 66.8122C281.024 66.7694 281.283 66.96 281.326 67.2409L281.343 67.3533C281.386 67.6343 281.645 67.8248 281.926 67.7821L282.038 67.765C282.319 67.7223 282.578 67.9129 282.621 68.1938L282.638 68.3062C282.681 68.5871 282.94 68.7777 283.221 68.735L288.952 67.8633C289.233 67.8205 289.423 67.5616 289.381 67.2807L289.363 67.1683C289.321 66.8873 289.511 66.6284 289.792 66.5857L289.905 66.5686C290.186 66.5258 290.376 66.2669 290.333 65.986L290.316 65.8736C290.274 65.5926 290.464 65.3337 290.745 65.291L290.858 65.2739C291.138 65.2311 291.329 64.9722 291.286 64.6913L291.269 64.5789C291.226 64.2979 291.417 64.039 291.698 63.9963L291.81 63.9792C292.091 63.9364 292.282 63.6775 292.239 63.3966L292.222 63.2842C292.179 63.0032 292.37 62.7443 292.651 62.7016L292.763 62.6845C293.044 62.6417 293.235 62.3828 293.192 62.1019L292.833 59.7419C292.79 59.461 292.981 59.202 293.262 59.1593L293.824 59.0738C294.105 59.0311 294.295 58.7722 294.253 58.4912L293.894 56.1313C293.851 55.8503 294.041 55.5914 294.322 55.5487L294.435 55.5316C294.716 55.4889 294.906 55.2299 294.864 54.949L294.334 51.4653C294.291 51.1843 294.482 50.9254 294.762 50.8826L294.875 50.8655C295.156 50.8228 295.346 50.5639 295.304 50.2829L294.945 47.923C294.902 47.6421 295.093 47.3831 295.373 47.3404L295.486 47.3233C295.767 47.2806 295.957 47.0216 295.915 46.7407L295.385 43.257C295.342 42.976 295.533 42.7171 295.814 42.6743L295.926 42.6573C296.207 42.6145 296.397 42.3556 296.355 42.0746L295.996 39.7147C295.953 39.4338 296.144 39.1748 296.425 39.1321L296.537 39.115C296.818 39.0723 297.008 38.8133 296.966 38.5324L296.436 35.0487C296.393 34.7677 296.584 34.5088 296.865 34.466L296.977 34.449C297.258 34.4062 297.449 34.1473 297.406 33.8663L297.047 31.5064C297.004 31.2255 297.195 30.9665 297.476 30.9238L297.588 30.9067C297.869 30.864 298.06 30.605 298.017 30.3241L297.658 27.9641C297.615 27.6832 297.356 27.4926 297.075 27.5354L296.963 27.5525C296.682 27.5952 296.423 27.4046 296.38 27.1237L296.363 27.0113C296.321 26.7303 296.062 26.5398 295.781 26.5825L294.544 26.7705C294.264 26.8132 294.005 26.6227 293.962 26.3417L293.945 26.2294C293.902 25.9484 294.093 25.6895 294.374 25.6467L304.6 24.0914C304.881 24.0486 305.14 24.2392 305.183 24.5201L305.2 24.6325C305.242 24.9135 305.052 25.1724 304.771 25.2151L303.535 25.4031C303.254 25.4459 303.063 25.7048 303.106 25.9858L303.123 26.0981C303.166 26.3791 302.975 26.638 302.694 26.6808L301.458 26.8688C301.177 26.9115 300.987 27.1704 301.029 27.4514L301.046 27.5638C301.089 27.8447 300.899 28.1036 300.618 28.1464L300.505 28.1635C300.224 28.2062 300.034 28.4651 300.076 28.7461L300.264 29.9822C300.307 30.2632 300.117 30.5221 299.836 30.5649L299.723 30.5819C299.442 30.6247 299.252 30.8836 299.294 31.1646L299.653 33.5245C299.696 33.8054 299.506 34.0644 299.225 34.1071L299.112 34.1242C298.831 34.1669 298.641 34.4259 298.683 34.7068L299.213 38.1905C299.256 38.4715 299.065 38.7304 298.785 38.7731L298.672 38.7902C298.391 38.833 298.201 39.0919 298.243 39.3729L298.602 41.7328C298.645 42.0137 298.454 42.2727 298.174 42.3154L298.061 42.3325C297.78 42.3752 297.59 42.6342 297.632 42.9151L298.162 46.3988C298.205 46.6798 298.014 46.9387 297.733 46.9814L297.621 46.9985C297.34 47.0413 297.15 47.3002 297.192 47.5812L297.551 49.9411C297.594 50.222 297.403 50.481 297.122 50.5237L297.01 50.5408C296.729 50.5835 296.539 50.8425 296.581 51.1234L297.111 54.6071C297.154 54.8881 296.963 55.147 296.682 55.1897L296.57 55.2068C296.289 55.2496 296.098 55.5085 296.141 55.7894L296.5 58.1494C296.543 58.4303 296.352 58.6893 296.071 58.732L295.509 58.8175C295.228 58.8602 295.038 59.1191 295.081 59.4001L295.44 61.76C295.482 62.041 295.292 62.2999 295.011 62.3426L294.898 62.3597C294.617 62.4024 294.427 62.6614 294.47 62.9423L294.658 64.1785C294.7 64.4594 294.51 64.7184 294.229 64.7611L294.116 64.7782C293.836 64.8209 293.645 65.0799 293.688 65.3608L293.705 65.4732C293.748 65.7541 293.557 66.0131 293.276 66.0558L293.164 66.0729C292.883 66.1156 292.692 66.3746 292.735 66.6555L292.752 66.7679C292.795 67.0488 292.604 67.3078 292.323 67.3505L291.087 67.5385C290.806 67.5812 290.615 67.8402 290.658 68.1211L290.675 68.2335C290.718 68.5145 290.527 68.7734 290.246 68.8161L290.134 68.8332C289.853 68.8759 289.663 69.1349 289.705 69.4158L289.722 69.5282C289.765 69.8092 289.575 70.0681 289.294 70.1108L280.191 71.4953C279.91 71.538 279.651 71.3474 279.608 71.0665L279.591 70.9541C279.549 70.6732 279.29 70.4826 279.009 70.5253L278.896 70.5424C278.615 70.5852 278.356 70.3946 278.314 70.1136L278.297 70.0013C278.254 69.7203 277.995 69.5298 277.714 69.5725L277.602 69.5896C277.321 69.6323 277.062 69.4417 277.019 69.1608L277.002 69.0484C276.959 68.7675 276.7 68.5769 276.419 68.6196L276.307 68.6367C276.026 68.6794 275.767 68.4889 275.724 68.2079L274.34 59.1053ZM302.315 68.1303C302.034 68.173 301.776 67.9824 301.733 67.7015L301.716 67.5891C301.673 67.3082 301.864 67.0492 302.144 67.0065L303.381 66.8185C303.662 66.7758 303.852 66.5168 303.809 66.2359L303.792 66.1235C303.75 65.8425 303.94 65.5836 304.221 65.5409L305.457 65.3529C305.738 65.3101 305.929 65.0512 305.886 64.7702L305.869 64.6579C305.826 64.3769 306.017 64.118 306.298 64.0753L306.41 64.0582C306.691 64.0154 306.882 63.7565 306.839 63.4755L306.651 62.2394C306.608 61.9584 306.799 61.6995 307.08 61.6568L307.192 61.6397C307.473 61.597 307.664 61.338 307.621 61.0571L307.091 57.5734C307.048 57.2924 307.239 57.0335 307.52 56.9907L307.632 56.9736C307.913 56.9309 308.104 56.672 308.061 56.391L307.702 54.0311C307.659 53.7501 307.85 53.4912 308.131 53.4485L308.243 53.4314C308.524 53.3887 308.715 53.1297 308.672 52.8488L308.142 49.3651C308.099 49.0841 308.29 48.8252 308.571 48.7824L308.683 48.7654C308.964 48.7226 309.155 48.4637 309.112 48.1827L308.753 45.8228C308.71 45.5419 308.901 45.2829 309.182 45.2402L309.294 45.2231C309.575 45.1804 309.766 44.9214 309.723 44.6405L309.193 41.1568C309.15 40.8758 309.341 40.6169 309.622 40.5741L309.734 40.5571C310.015 40.5143 310.206 40.2554 310.163 39.9744L309.804 37.6145C309.762 37.3336 309.952 37.0746 310.233 37.0319L310.345 37.0148C310.626 36.9721 310.817 36.7131 310.774 36.4322L310.244 32.9485C310.202 32.6675 310.392 32.4086 310.673 32.3659L310.785 32.3488C311.066 32.306 311.257 32.0471 311.214 31.7661L310.855 29.4062C310.813 29.1253 311.003 28.8663 311.284 28.8236L311.397 28.8065C311.677 28.7638 311.868 28.5048 311.825 28.2239L311.466 25.864C311.424 25.583 311.165 25.3924 310.884 25.4352L310.771 25.4523C310.49 25.495 310.231 25.3044 310.189 25.0235L310.172 24.9111C310.129 24.6301 309.87 24.4396 309.589 24.4823L308.353 24.6703C308.072 24.7131 307.813 24.5225 307.77 24.2415L307.753 24.1292C307.71 23.8482 307.901 23.5893 308.182 23.5465L322.903 21.3075C323.184 21.2647 323.443 21.4553 323.486 21.7363L323.503 21.8486C323.546 22.1296 323.805 22.3202 324.086 22.2774L325.322 22.0894C325.603 22.0467 325.862 22.2372 325.905 22.5182L325.922 22.6306C325.964 22.9115 326.223 23.1021 326.504 23.0594L326.617 23.0423C326.898 22.9995 327.157 23.1901 327.199 23.4711L327.387 24.7072C327.43 24.9882 327.689 25.1787 327.97 25.136L328.082 25.1189C328.363 25.0762 328.622 25.2667 328.665 25.5477L329.878 33.5265C329.921 33.8075 329.731 34.0664 329.45 34.1091L329.337 34.1262C329.056 34.169 328.866 34.4279 328.908 34.7088L329.267 37.0688C329.31 37.3497 329.12 37.6087 328.839 37.6514L328.726 37.6685C328.445 37.7112 328.255 37.9702 328.297 38.2511L328.315 38.3635C328.357 38.6444 328.167 38.9034 327.886 38.9461L327.773 38.9632C327.492 39.0059 327.302 39.2649 327.345 39.5458L327.362 39.6582C327.404 39.9391 327.214 40.1981 326.933 40.2408L326.821 40.2579C326.54 40.3006 326.349 40.5596 326.392 40.8405L326.409 40.9529C326.452 41.2338 326.261 41.4928 325.98 41.5355L325.868 41.5526C325.587 41.5953 325.396 41.8543 325.439 42.1352L325.456 42.2476C325.499 42.5285 325.308 42.7875 325.027 42.8302L324.915 42.8473C324.634 42.89 324.443 43.149 324.486 43.4299L324.503 43.5423C324.546 43.8232 324.355 44.0822 324.074 44.1249L322.838 44.3129C322.557 44.3556 322.367 44.6146 322.409 44.8955L322.426 45.0079C322.469 45.2888 322.279 45.5478 321.998 45.5905L314.019 46.8041C313.738 46.8468 313.547 47.1057 313.59 47.3867L313.607 47.499C313.65 47.78 313.459 48.0389 313.178 48.0817L313.066 48.0988C312.785 48.1415 312.594 48.4004 312.637 48.6814L313.167 52.1651C313.21 52.446 313.019 52.705 312.738 52.7477L312.626 52.7648C312.345 52.8075 312.154 53.0665 312.197 53.3474L312.556 55.7073C312.599 55.9883 312.408 56.2472 312.127 56.29L312.015 56.3071C311.734 56.3498 311.543 56.6087 311.586 56.8897L312.116 60.3734C312.159 60.6543 311.968 60.9133 311.687 60.956L311.575 60.9731C311.294 61.0158 311.103 61.2748 311.146 61.5557L311.505 63.9156C311.548 64.1966 311.807 64.3872 312.088 64.3444L312.2 64.3273C312.481 64.2846 312.74 64.4752 312.783 64.7561L312.8 64.8685C312.842 65.1494 313.101 65.34 313.382 65.2973L314.618 65.1093C314.899 65.0665 315.158 65.2571 315.201 65.5381L315.218 65.6504C315.261 65.9314 315.07 66.1903 314.789 66.233L302.315 68.1303ZM314.218 43.9568C314.261 44.2377 314.52 44.4283 314.801 44.3856L320.532 43.5139C320.813 43.4711 321.004 43.2122 320.961 42.9313L320.944 42.8189C320.901 42.5379 321.092 42.279 321.373 42.2363L321.485 42.2192C321.766 42.1764 321.956 41.9175 321.914 41.6366L321.897 41.5242C321.854 41.2432 322.044 40.9843 322.325 40.9416L322.438 40.9245C322.719 40.8817 322.909 40.6228 322.867 40.3419L322.849 40.2295C322.807 39.9485 322.997 39.6896 323.278 39.6469L323.391 39.6298C323.672 39.587 323.862 39.3281 323.819 39.0472L323.802 38.9348C323.76 38.6538 323.95 38.3949 324.231 38.3522L324.344 38.3351C324.624 38.2923 324.815 38.0334 324.772 37.7525L324.413 35.3925C324.371 35.1116 324.561 34.8526 324.842 34.8099L324.955 34.7928C325.235 34.7501 325.426 34.4911 325.383 34.2102L324.341 27.3552C324.298 27.0742 324.039 26.8836 323.758 26.9264L323.646 26.9435C323.365 26.9862 323.106 26.7956 323.063 26.5147L322.875 25.2785C322.832 24.9976 322.573 24.807 322.292 24.8497L322.18 24.8668C321.899 24.9096 321.64 24.719 321.597 24.438L321.58 24.3257C321.538 24.0447 321.279 23.8541 320.998 23.8969L317.514 24.4267C317.233 24.4695 317.043 24.7284 317.085 25.0093L317.102 25.1217C317.145 25.4027 316.955 25.6616 316.674 25.7043L316.561 25.7214C316.28 25.7642 316.09 26.0231 316.132 26.304L316.32 27.5402C316.363 27.8211 316.173 28.0801 315.892 28.1228L315.779 28.1399C315.498 28.1826 315.308 28.4416 315.35 28.7225L315.709 31.0825C315.752 31.3634 315.562 31.6223 315.281 31.6651L315.168 31.6822C314.887 31.7249 314.697 31.9838 314.739 32.2648L315.269 35.7485C315.312 36.0294 315.121 36.2884 314.841 36.3311L314.728 36.3482C314.447 36.3909 314.257 36.6499 314.299 36.9308L314.658 39.2908C314.701 39.5717 314.51 39.8306 314.229 39.8734L314.117 39.8905C313.836 39.9332 313.646 40.1921 313.688 40.4731L314.218 43.9568Z" fill="#232323"/>
</g>
<rect x="1.139" y="55.2708" width="360" height="74" rx="19" transform="rotate(-8.64814 1.139 55.2708)" stroke="#262626" stroke-width="2"/>
</g>
<defs>
<filter id="filter0_ii_234_978" x="0" y="0" width="369.312" height="129.568" filterUnits="userSpaceOnUse" color-interpolation-filters="sRGB">
<feFlood flood-opacity="0" result="BackgroundImageFix"/>
<feBlend mode="normal" in="SourceGraphic" in2="BackgroundImageFix" result="shape"/>
<feColorMatrix in="SourceAlpha" type="matrix" values="0 0 0 0 0 0 0 0 0 0 0 0 0 0 0 0 0 0 127 0" result="hardAlpha"/>
<feOffset dx="5.21954" dy="5.21954"/>
<feComposite in2="hardAlpha" operator="arithmetic" k2="-1" k3="1"/>
<feColorMatrix type="matrix" values="0 0 0 0 1 0 0 0 0 1 0 0 0 0 1 0 0 0 0.6 0"/>
<feBlend mode="normal" in2="shape" result="effect1_innerShadow_234_978"/>
<feColorMatrix in="SourceAlpha" type="matrix" values="0 0 0 0 0 0 0 0 0 0 0 0 0 0 0 0 0 0 127 0" result="hardAlpha"/>
<feOffset dx="-5.21954" dy="-5.21954"/>
<feComposite in2="hardAlpha" operator="arithmetic" k2="-1" k3="1"/>
<feColorMatrix type="matrix" values="0 0 0 0 0.14902 0 0 0 0 0.14902 0 0 0 0 0.14902 0 0 0 0.4 0"/>
<feBlend mode="normal" in2="effect1_innerShadow_234_978" result="effect2_innerShadow_234_978"/>
</filter>
<clipPath id="clip0_234_978">
<rect y="54.4325" width="362" height="76" rx="20" transform="rotate(-8.64814 0 54.4325)" fill="white"/>
</clipPath>
</defs>
</svg>
