<svg id="title-with" width="198" height="131" viewBox="0 0 198 131" fill="none" xmlns="http://www.w3.org/2000/svg">
<mask id="path-1-inside-1_234_973" fill="white">
<path d="M151.358 26.6626C167.6 29.9349 178.114 45.7547 174.842 61.9967L169.003 90.9759C168.587 93.0431 167.966 95.0172 167.168 96.8821C167.326 96.7654 167.478 96.6418 167.622 96.5093C163.339 115.193 175.55 127.408 178.89 129.705C162.95 129.423 151.901 120.682 146.582 114.23C142.472 115.218 138.086 115.35 133.669 114.46L30.7376 93.7224C14.4954 90.4501 3.98121 74.6305 7.2535 58.3883L13.0917 29.41C16.364 13.1679 32.1839 2.65274 48.426 5.92502L151.358 26.6626Z"/>
</mask>
<g filter="url(#filter0_i_234_973)">
<path d="M151.358 26.6626C167.6 29.9349 178.114 45.7547 174.842 61.9967L169.003 90.9759C168.587 93.0431 167.966 95.0172 167.168 96.8821C167.326 96.7654 167.478 96.6418 167.622 96.5093C163.339 115.193 175.55 127.408 178.89 129.705C162.95 129.423 151.901 120.682 146.582 114.23C142.472 115.218 138.086 115.35 133.669 114.46L30.7376 93.7224C14.4954 90.4501 3.98121 74.6305 7.2535 58.3883L13.0917 29.41C16.364 13.1679 32.1839 2.65274 48.426 5.92502L151.358 26.6626Z" fill="#4DA6FF"/>
</g>
<path d="M174.842 61.9967L175.822 62.1942L175.822 62.1942L174.842 61.9967ZM169.003 90.9759L168.023 90.7784L169.003 90.9759ZM167.168 96.8821L166.249 96.4888L164.801 99.8729L167.762 97.6866L167.168 96.8821ZM167.622 96.5093L168.596 96.7327L169.317 93.5876L166.944 95.7738L167.622 96.5093ZM178.89 129.705L178.872 130.705L182.194 130.764L179.457 128.881L178.89 129.705ZM146.582 114.23L147.354 113.594L146.956 113.112L146.349 113.258L146.582 114.23ZM30.7376 93.7224L30.5401 94.7027L30.5401 94.7027L30.7376 93.7224ZM7.2535 58.3883L6.2732 58.1908L7.2535 58.3883ZM13.0917 29.41L14.072 29.6075L13.0917 29.41ZM48.426 5.92502L48.6235 4.94472L48.6235 4.94472L48.426 5.92502ZM151.358 26.6626L151.16 27.6429C166.861 30.8061 177.025 46.0986 173.862 61.7992L174.842 61.9967L175.822 62.1942C179.203 45.4108 168.339 29.0636 151.555 25.6823L151.358 26.6626ZM174.842 61.9967L173.862 61.7992L168.023 90.7784L169.003 90.9759L169.984 91.1734L175.822 62.1942L174.842 61.9967ZM169.003 90.9759L168.023 90.7784C167.62 92.7776 167.02 94.686 166.249 96.4888L167.168 96.8821L168.087 97.2755C168.912 95.3483 169.554 93.3086 169.984 91.1734L169.003 90.9759ZM167.168 96.8821L167.762 97.6866C167.945 97.5512 168.126 97.4047 168.299 97.2448L167.622 96.5093L166.944 95.7738C166.83 95.8788 166.707 95.9796 166.574 96.0776L167.168 96.8821ZM167.622 96.5093L166.647 96.2859C164.444 105.897 166.485 113.863 169.509 119.711C172.519 125.532 176.516 129.286 178.323 130.529L178.89 129.705L179.457 128.881C177.924 127.827 174.146 124.325 171.286 118.793C168.44 113.289 166.517 105.805 168.596 96.7327L167.622 96.5093ZM178.89 129.705L178.908 128.705C163.343 128.43 152.546 119.893 147.354 113.594L146.582 114.23L145.811 114.867C151.256 121.472 162.558 130.416 178.872 130.705L178.89 129.705ZM146.582 114.23L146.349 113.258C142.376 114.212 138.138 114.34 133.867 113.48L133.669 114.46L133.472 115.44C138.035 116.36 142.567 116.223 146.816 115.203L146.582 114.23ZM133.669 114.46L133.867 113.48L30.9351 92.7421L30.7376 93.7224L30.5401 94.7027L133.472 115.44L133.669 114.46ZM30.7376 93.7224L30.9351 92.7421C15.2343 89.5789 5.07059 74.2866 8.23381 58.5858L7.2535 58.3883L6.2732 58.1908C2.89183 74.9744 13.7565 91.3213 30.5401 94.7027L30.7376 93.7224ZM7.2535 58.3883L8.23381 58.5858L14.072 29.6075L13.0917 29.41L12.1114 29.2125L6.2732 58.1908L7.2535 58.3883ZM13.0917 29.41L14.072 29.6075C17.2353 13.9067 32.5278 3.74213 48.2285 6.90532L48.426 5.92502L48.6235 4.94472C31.8399 1.56336 15.4928 12.429 12.1114 29.2125L13.0917 29.41ZM48.426 5.92502L48.2285 6.90532L151.16 27.6429L151.358 26.6626L151.555 25.6823L48.6235 4.94472L48.426 5.92502Z" fill="#1888FE" mask="url(#path-1-inside-1_234_973)"/>
<path d="M51.3527 66.4654L49.9892 47.964C49.9761 47.4331 49.9906 47.0037 50.0603 46.6576C50.3067 45.4345 51.3326 44.7526 52.5788 45.0037C53.5942 45.2083 54.193 46.1694 54.2463 47.693L54.6364 65.6621L54.7979 65.6946L62.3998 50.7285C63.8073 47.9143 64.4636 47.3981 65.9867 47.705C67.5098 48.0118 67.8967 48.7141 68.1461 51.8862L69.4521 68.647L69.6367 68.6842L77.1114 52.2036C77.7412 50.8656 78.587 50.2435 79.5562 50.4388C80.687 50.6666 81.2951 51.5816 81.072 52.6893C81.0115 52.9893 80.8772 53.2985 80.5994 53.8429L72.2839 70.6824C70.8347 73.5843 70.0999 74.1326 68.646 73.8397C67.146 73.5375 66.5885 72.7288 66.3299 69.4828L64.9215 53.3498L64.8061 53.3266L57.3759 67.6789C55.8806 70.5715 55.1919 71.1291 53.6688 70.8223C52.0534 70.4968 51.5882 69.7067 51.3527 66.4654ZM87.558 45.8553C87.8509 44.4014 89.191 43.5908 90.5756 43.8697C92.0756 44.1719 92.9741 45.4336 92.6812 46.8875C92.3883 48.3413 91.0621 49.2028 89.562 48.9006C88.1774 48.6216 87.2651 47.3092 87.558 45.8553ZM86.3718 75.1056C86.0696 76.6056 85.0716 77.149 83.9408 76.9212C82.81 76.6933 82.1049 75.7828 82.4025 74.3059L86.4893 54.0209C86.7915 52.5209 87.8125 51.9821 88.9433 52.21C90.0741 52.4378 90.7561 53.3436 90.4586 54.8206L86.3718 75.1056ZM95.8253 72.3754L98.7358 57.929L96.9819 57.5757C95.8511 57.3478 95.2612 56.5806 95.4704 55.5421C95.6797 54.5037 96.5022 53.997 97.656 54.2295L99.433 54.5875L100.237 50.5951C100.516 49.2104 101.418 48.5515 102.641 48.7979C103.887 49.049 104.463 50.0055 104.184 51.3901L103.379 55.3825L106.633 56.0381C107.787 56.2705 108.349 57.0562 108.14 58.0947C107.931 59.1331 107.09 59.6121 105.959 59.3843L102.728 58.7334L99.8083 73.2259C99.2876 75.8106 99.7803 76.7023 102.019 77.1533C102.665 77.2835 103.141 77.3073 103.579 77.3956C104.479 77.5769 104.986 78.2794 104.805 79.1794C104.674 79.8256 104.267 80.2959 103.482 80.4979C102.771 80.6908 101.838 80.6711 100.523 80.4061C96.1383 79.5227 94.807 77.4294 95.8253 72.3754ZM129.515 83.7977C129.241 85.1592 128.284 85.855 127.038 85.604C125.792 85.3529 125.244 84.378 125.523 82.9933L128.215 69.6315C128.963 65.9161 127.374 63.4346 123.936 62.7419C119.989 61.9468 116.893 64.3247 115.949 69.0094L113.615 80.5943C113.336 81.9789 112.407 82.6562 111.161 82.4052C109.915 82.1541 109.367 81.1792 109.646 79.7946L115.509 50.694C115.792 49.2863 116.693 48.6274 117.917 48.8738C119.163 49.1248 119.762 50.086 119.478 51.4937L117.209 62.7555L117.417 62.7973C118.819 60.1262 122.312 58.7645 125.912 59.4898C130.989 60.5127 133.463 64.205 132.449 69.2359L129.515 83.7977Z" fill="white"/>
<defs>
<filter id="filter0_i_234_973" x="6.6566" y="5.32831" width="172.233" height="128.377" filterUnits="userSpaceOnUse" color-interpolation-filters="sRGB">
<feFlood flood-opacity="0" result="BackgroundImageFix"/>
<feBlend mode="normal" in="SourceGraphic" in2="BackgroundImageFix" result="shape"/>
<feColorMatrix in="SourceAlpha" type="matrix" values="0 0 0 0 0 0 0 0 0 0 0 0 0 0 0 0 0 0 127 0" result="hardAlpha"/>
<feOffset dy="4"/>
<feGaussianBlur stdDeviation="22"/>
<feComposite in2="hardAlpha" operator="arithmetic" k2="-1" k3="1"/>
<feColorMatrix type="matrix" values="0 0 0 0 0.0941176 0 0 0 0 0.533333 0 0 0 0 0.996078 0 0 0 1 0"/>
<feBlend mode="normal" in2="shape" result="effect1_innerShadow_234_973"/>
</filter>
</defs>
</svg>
